solid OpenSCAD_Model
  facet normal 0 0 -1
    outer loop
      vertex 0 0 0
      vertex 73.5 73.5 0
      vertex 73.5 0 0
    endloop
  endfacet
  facet normal -0 0 -1
    outer loop
      vertex 73.5 73.5 0
      vertex 0 0 0
      vertex 0 73.5 0
    endloop
  endfacet
  facet normal -0 0 1
    outer loop
      vertex 68 1.59999 33
      vertex 73.5 0 33
      vertex 73.5 1.59999 33
    endloop
  endfacet
  facet normal 0 0 1
    outer loop
      vertex 73.5 0 33
      vertex 68 1.59999 33
      vertex 68 0 33
    endloop
  endfacet
  facet normal -0 0 1
    outer loop
      vertex 0 73.5 33
      vertex 1.59999 56 33
      vertex 1.59999 73.5 33
    endloop
  endfacet
  facet normal 0 0 1
    outer loop
      vertex 1.59999 56 33
      vertex 0 73.5 33
      vertex 0 56 33
    endloop
  endfacet
  facet normal 0 1 0
    outer loop
      vertex 73.5 1.59999 33
      vertex 68 1.59999 26
      vertex 68 1.59999 33
    endloop
  endfacet
  facet normal 0 1 -0
    outer loop
      vertex 73.5 1.59999 3
      vertex 68 1.59999 26
      vertex 73.5 1.59999 33
    endloop
  endfacet
  facet normal 0 1 0
    outer loop
      vertex 1.59999 1.59999 3
      vertex 68 1.59999 26
      vertex 73.5 1.59999 3
    endloop
  endfacet
  facet normal 0 1 0
    outer loop
      vertex 68 1.59999 26
      vertex 1.59999 1.59999 3
      vertex 1.59999 1.59999 26
    endloop
  endfacet
  facet normal 1 0 0
    outer loop
      vertex 1.59999 56 26
      vertex 1.59999 73.5 33
      vertex 1.59999 56 33
    endloop
  endfacet
  facet normal 1 0 0
    outer loop
      vertex 1.59999 73.5 33
      vertex 1.59999 56 26
      vertex 1.59999 73.5 3
    endloop
  endfacet
  facet normal 1 0 0
    outer loop
      vertex 1.59999 1.59999 3
      vertex 1.59999 56 26
      vertex 1.59999 1.59999 26
    endloop
  endfacet
  facet normal 1 0 0
    outer loop
      vertex 1.59999 56 26
      vertex 1.59999 1.59999 3
      vertex 1.59999 73.5 3
    endloop
  endfacet
  facet normal 0 1 0
    outer loop
      vertex 73.5 73.5 3
      vertex 73.5 73.5 0
      vertex 1.59999 73.5 3
    endloop
  endfacet
  facet normal 0 1 -0
    outer loop
      vertex 1.59999 73.5 3
      vertex 0 73.5 33
      vertex 1.59999 73.5 33
    endloop
  endfacet
  facet normal 0 1 0
    outer loop
      vertex 1.59999 73.5 3
      vertex 0 73.5 0
      vertex 0 73.5 33
    endloop
  endfacet
  facet normal 0 1 0
    outer loop
      vertex 0 73.5 0
      vertex 1.59999 73.5 3
      vertex 73.5 73.5 0
    endloop
  endfacet
  facet normal -1 0 0
    outer loop
      vertex 0 73.5 0
      vertex 0 56 26
      vertex 0 73.5 33
    endloop
  endfacet
  facet normal -1 0 0
    outer loop
      vertex 0 0 0
      vertex 0 56 26
      vertex 0 73.5 0
    endloop
  endfacet
  facet normal -1 -0 0
    outer loop
      vertex 0 56 26
      vertex 0 0 0
      vertex 0 0 26
    endloop
  endfacet
  facet normal -1 -0 0
    outer loop
      vertex 0 73.5 33
      vertex 0 56 26
      vertex 0 56 33
    endloop
  endfacet
  facet normal 0 -1 0
    outer loop
      vertex 0 0 26
      vertex 0 0 0
      vertex 68 0 26
    endloop
  endfacet
  facet normal 0 -1 0
    outer loop
      vertex 68 0 26
      vertex 73.5 0 33
      vertex 68 0 33
    endloop
  endfacet
  facet normal 0 -1 0
    outer loop
      vertex 68 0 26
      vertex 73.5 0 0
      vertex 73.5 0 33
    endloop
  endfacet
  facet normal 0 -1 0
    outer loop
      vertex 73.5 0 0
      vertex 68 0 26
      vertex 0 0 0
    endloop
  endfacet
  facet normal 1 0 0
    outer loop
      vertex 73.5 1.59999 33
      vertex 73.5 0 33
      vertex 73.5 1.59999 3
    endloop
  endfacet
  facet normal 1 -0 0
    outer loop
      vertex 73.5 1.59999 3
      vertex 73.5 73.5 0
      vertex 73.5 73.5 3
    endloop
  endfacet
  facet normal 1 0 0
    outer loop
      vertex 73.5 1.59999 3
      vertex 73.5 0 0
      vertex 73.5 73.5 0
    endloop
  endfacet
  facet normal 1 0 0
    outer loop
      vertex 73.5 0 0
      vertex 73.5 1.59999 3
      vertex 73.5 0 33
    endloop
  endfacet
  facet normal 0 0 1
    outer loop
      vertex 1.59999 56 26
      vertex 0 56 26
      vertex 1.59999 1.59999 26
    endloop
  endfacet
  facet normal -0 0 1
    outer loop
      vertex 1.59999 1.59999 26
      vertex 68 0 26
      vertex 68 1.59999 26
    endloop
  endfacet
  facet normal 0 0 1
    outer loop
      vertex 1.59999 1.59999 26
      vertex 0 0 26
      vertex 68 0 26
    endloop
  endfacet
  facet normal 0 0 1
    outer loop
      vertex 0 0 26
      vertex 1.59999 1.59999 26
      vertex 0 56 26
    endloop
  endfacet
  facet normal 0 -1 0
    outer loop
      vertex 0 56 26
      vertex 1.59999 56 33
      vertex 0 56 33
    endloop
  endfacet
  facet normal 0 -1 -0
    outer loop
      vertex 1.59999 56 33
      vertex 0 56 26
      vertex 1.59999 56 26
    endloop
  endfacet
  facet normal -1 0 0
    outer loop
      vertex 68 0 26
      vertex 68 1.59999 33
      vertex 68 1.59999 26
    endloop
  endfacet
  facet normal -1 -0 0
    outer loop
      vertex 68 1.59999 33
      vertex 68 0 26
      vertex 68 0 33
    endloop
  endfacet
  facet normal -0 0 1
    outer loop
      vertex 1.60001 71.9 1
      vertex 71.9 1.60001 1
      vertex 71.9 71.9 1
    endloop
  endfacet
  facet normal 0 0 1
    outer loop
      vertex 71.9 1.60001 1
      vertex 1.60001 71.9 1
      vertex 1.60001 1.60001 1
    endloop
  endfacet
  facet normal 0 0 1
    outer loop
      vertex 73.5 73.5 3
      vertex 71.9 71.9 3
      vertex 73.5 1.59999 3
    endloop
  endfacet
  facet normal -0 0 1
    outer loop
      vertex 1.59999 73.5 3
      vertex 71.9 71.9 3
      vertex 73.5 73.5 3
    endloop
  endfacet
  facet normal 0 0 1
    outer loop
      vertex 1.59999 1.59999 3
      vertex 1.60001 71.9 3
      vertex 1.59999 73.5 3
    endloop
  endfacet
  facet normal 0 0 1
    outer loop
      vertex 71.9 71.9 3
      vertex 1.59999 73.5 3
      vertex 1.60001 71.9 3
    endloop
  endfacet
  facet normal -0 0 1
    outer loop
      vertex 71.9 1.60001 3
      vertex 73.5 1.59999 3
      vertex 71.9 71.9 3
    endloop
  endfacet
  facet normal 0 0 1
    outer loop
      vertex 1.59999 1.59999 3
      vertex 71.9 1.60001 3
      vertex 1.60001 1.60001 3
    endloop
  endfacet
  facet normal 0 0 1
    outer loop
      vertex 71.9 1.60001 3
      vertex 1.59999 1.59999 3
      vertex 73.5 1.59999 3
    endloop
  endfacet
  facet normal 0 0 1
    outer loop
      vertex 1.60001 71.9 3
      vertex 1.59999 1.59999 3
      vertex 1.60001 1.60001 3
    endloop
  endfacet
  facet normal 1 -0 0
    outer loop
      vertex 1.60001 1.60001 3
      vertex 1.60001 71.9 1
      vertex 1.60001 71.9 3
    endloop
  endfacet
  facet normal 1 0 0
    outer loop
      vertex 1.60001 71.9 1
      vertex 1.60001 1.60001 3
      vertex 1.60001 1.60001 1
    endloop
  endfacet
  facet normal 0 -1 0
    outer loop
      vertex 1.60001 71.9 1
      vertex 71.9 71.9 3
      vertex 1.60001 71.9 3
    endloop
  endfacet
  facet normal 0 -1 -0
    outer loop
      vertex 71.9 71.9 3
      vertex 1.60001 71.9 1
      vertex 71.9 71.9 1
    endloop
  endfacet
  facet normal -1 0 0
    outer loop
      vertex 71.9 1.60001 1
      vertex 71.9 71.9 3
      vertex 71.9 71.9 1
    endloop
  endfacet
  facet normal -1 -0 0
    outer loop
      vertex 71.9 71.9 3
      vertex 71.9 1.60001 1
      vertex 71.9 1.60001 3
    endloop
  endfacet
  facet normal 0 1 -0
    outer loop
      vertex 71.9 1.60001 1
      vertex 1.60001 1.60001 3
      vertex 71.9 1.60001 3
    endloop
  endfacet
  facet normal 0 1 0
    outer loop
      vertex 1.60001 1.60001 3
      vertex 71.9 1.60001 1
      vertex 1.60001 1.60001 1
    endloop
  endfacet
endsolid OpenSCAD_Model
