solid OpenSCAD_Model
  facet normal 0 0 -1
    outer loop
      vertex 0 0 0
      vertex 245 90 0
      vertex 245 0 0
    endloop
  endfacet
  facet normal -0 0 -1
    outer loop
      vertex 245 90 0
      vertex 0 0 0
      vertex 0 90 0
    endloop
  endfacet
  facet normal -1 0 0
    outer loop
      vertex 0 0 0
      vertex 0 90 20
      vertex 0 90 0
    endloop
  endfacet
  facet normal -1 -0 0
    outer loop
      vertex 0 90 20
      vertex 0 0 0
      vertex 0 0 20
    endloop
  endfacet
  facet normal -0 0 1
    outer loop
      vertex 1.60001 88.4 1
      vertex 81.1333 10.6 1
      vertex 81.1333 88.4 1
    endloop
  endfacet
  facet normal 0 0 1
    outer loop
      vertex 81.1333 10.6 1
      vertex 1.60001 88.4 1
      vertex 1.60001 10.6 1
    endloop
  endfacet
  facet normal 0 1 -0
    outer loop
      vertex 245 90 1
      vertex 0 90 20
      vertex 245 90 20
    endloop
  endfacet
  facet normal 0 1 0
    outer loop
      vertex 0 90 0
      vertex 245 90 1
      vertex 245 90 0
    endloop
  endfacet
  facet normal 0 1 0
    outer loop
      vertex 245 90 1
      vertex 0 90 0
      vertex 0 90 20
    endloop
  endfacet
  facet normal 0 -1 0
    outer loop
      vertex 0 0 20
      vertex 245 0 1
      vertex 245 0 20
    endloop
  endfacet
  facet normal 0 -1 0
    outer loop
      vertex 0 0 0
      vertex 245 0 1
      vertex 0 0 20
    endloop
  endfacet
  facet normal 0 -1 0
    outer loop
      vertex 245 0 0
      vertex 245 0 1
      vertex 0 0 0
    endloop
  endfacet
  facet normal 0 0 1
    outer loop
      vertex 245 90 20
      vertex 243.4 88.4 20
      vertex 245 0 20
    endloop
  endfacet
  facet normal 0 0 1
    outer loop
      vertex 245 90 20
      vertex 163.867 88.4 20
      vertex 243.4 88.4 20
    endloop
  endfacet
  facet normal 0 0 1
    outer loop
      vertex 163.867 88.4 20
      vertex 162.267 88.4 20
      vertex 163.867 1.60001 20
    endloop
  endfacet
  facet normal 0 0 1
    outer loop
      vertex 245 90 20
      vertex 162.267 88.4 20
      vertex 163.867 88.4 20
    endloop
  endfacet
  facet normal 0 0 1
    outer loop
      vertex 245 90 20
      vertex 82.7333 88.4 20
      vertex 162.267 88.4 20
    endloop
  endfacet
  facet normal 0 0 1
    outer loop
      vertex 82.7333 88.4 20
      vertex 81.1333 88.4 20
      vertex 82.7333 1.60001 20
    endloop
  endfacet
  facet normal 0 0 1
    outer loop
      vertex 245 90 20
      vertex 81.1333 88.4 20
      vertex 82.7333 88.4 20
    endloop
  endfacet
  facet normal -0 0 1
    outer loop
      vertex 0 90 20
      vertex 81.1333 88.4 20
      vertex 245 90 20
    endloop
  endfacet
  facet normal 0 0 1
    outer loop
      vertex 1.60001 88.4 20
      vertex 0 90 20
      vertex 1.60001 1.60001 20
    endloop
  endfacet
  facet normal 0 0 1
    outer loop
      vertex 81.1333 88.4 20
      vertex 0 90 20
      vertex 1.60001 88.4 20
    endloop
  endfacet
  facet normal -0 0 1
    outer loop
      vertex 243.4 1.60001 20
      vertex 245 0 20
      vertex 243.4 88.4 20
    endloop
  endfacet
  facet normal -0 0 1
    outer loop
      vertex 163.867 1.60001 20
      vertex 245 0 20
      vertex 243.4 1.60001 20
    endloop
  endfacet
  facet normal 0 0 1
    outer loop
      vertex 162.267 1.60001 20
      vertex 163.867 1.60001 20
      vertex 162.267 88.4 20
    endloop
  endfacet
  facet normal -0 0 1
    outer loop
      vertex 162.267 1.60001 20
      vertex 245 0 20
      vertex 163.867 1.60001 20
    endloop
  endfacet
  facet normal -0 0 1
    outer loop
      vertex 82.7333 1.60001 20
      vertex 245 0 20
      vertex 162.267 1.60001 20
    endloop
  endfacet
  facet normal 0 0 1
    outer loop
      vertex 81.1333 1.60001 20
      vertex 82.7333 1.60001 20
      vertex 81.1333 88.4 20
    endloop
  endfacet
  facet normal -0 0 1
    outer loop
      vertex 81.1333 1.60001 20
      vertex 245 0 20
      vertex 82.7333 1.60001 20
    endloop
  endfacet
  facet normal 0 0 1
    outer loop
      vertex 0 0 20
      vertex 81.1333 1.60001 20
      vertex 1.60001 1.60001 20
    endloop
  endfacet
  facet normal 0 0 1
    outer loop
      vertex 81.1333 1.60001 20
      vertex 0 0 20
      vertex 245 0 20
    endloop
  endfacet
  facet normal 0 0 1
    outer loop
      vertex 0 0 20
      vertex 1.60001 1.60001 20
      vertex 0 90 20
    endloop
  endfacet
  facet normal 1 0 0
    outer loop
      vertex 1.60001 88.4 20
      vertex 1.60001 10.6 1
      vertex 1.60001 88.4 1
    endloop
  endfacet
  facet normal 1 -0 0
    outer loop
      vertex 1.60001 1.60001 20
      vertex 1.60001 10.6 1
      vertex 1.60001 88.4 20
    endloop
  endfacet
  facet normal 1 -0 -0
    outer loop
      vertex 1.60001 1.63961 10
      vertex 1.60001 10.6 1
      vertex 1.60001 1.60001 20
    endloop
  endfacet
  facet normal 1 0 0
    outer loop
      vertex 1.60001 10.6 1
      vertex 1.60001 1.63961 10
      vertex 1.60001 8.66526 1.21042
    endloop
  endfacet
  facet normal 1 0 0
    outer loop
      vertex 1.60001 8.66526 1.21042
      vertex 1.60001 1.63961 10
      vertex 1.60001 6.82099 1.83183
    endloop
  endfacet
  facet normal 1 0 0
    outer loop
      vertex 1.60001 6.82099 1.83183
      vertex 1.60001 1.63961 10
      vertex 1.60001 5.15342 2.83517
    endloop
  endfacet
  facet normal 1 0 0
    outer loop
      vertex 1.60001 5.15342 2.83517
      vertex 1.60001 1.63961 10
      vertex 1.60001 3.74053 4.17354
    endloop
  endfacet
  facet normal 1 0 0
    outer loop
      vertex 1.60001 2.64839 5.78433
      vertex 1.60001 1.63961 10
      vertex 1.60001 1.92805 7.59225
    endloop
  endfacet
  facet normal 1 0 0
    outer loop
      vertex 1.60001 3.74053 4.17354
      vertex 1.60001 1.63961 10
      vertex 1.60001 2.64839 5.78433
    endloop
  endfacet
  facet normal 1 0 0
    outer loop
      vertex 1.60001 1.63961 10
      vertex 1.60001 1.60001 20
      vertex 1.60001 1.60001 10
    endloop
  endfacet
  facet normal 1 0 0
    outer loop
      vertex 1.60001 1.92805 7.59225
      vertex 1.60001 1.63961 10
      vertex 1.60001 1.6132 9.51276
    endloop
  endfacet
  facet normal 0 -1 0
    outer loop
      vertex 1.60001 88.4 1
      vertex 81.1333 88.4 20
      vertex 1.60001 88.4 20
    endloop
  endfacet
  facet normal 0 -1 -0
    outer loop
      vertex 81.1333 88.4 20
      vertex 1.60001 88.4 1
      vertex 81.1333 88.4 1
    endloop
  endfacet
  facet normal -1 0 0
    outer loop
      vertex 81.1333 1.92805 7.59225
      vertex 81.1333 1.6132 9.51276
      vertex 81.1333 1.63961 10
    endloop
  endfacet
  facet normal -1 0 0
    outer loop
      vertex 81.1333 10.6 1
      vertex 81.1333 88.4 20
      vertex 81.1333 88.4 1
    endloop
  endfacet
  facet normal -1 0 0
    outer loop
      vertex 81.1333 1.63961 10
      vertex 81.1333 10.6 1
      vertex 81.1333 8.66526 1.21042
    endloop
  endfacet
  facet normal -1 0 0
    outer loop
      vertex 81.1333 1.63961 10
      vertex 81.1333 8.66526 1.21042
      vertex 81.1333 6.82099 1.83183
    endloop
  endfacet
  facet normal -1 0 0
    outer loop
      vertex 81.1333 1.63961 10
      vertex 81.1333 6.82099 1.83183
      vertex 81.1333 5.15342 2.83517
    endloop
  endfacet
  facet normal -1 0 0
    outer loop
      vertex 81.1333 1.63961 10
      vertex 81.1333 5.15342 2.83517
      vertex 81.1333 3.74053 4.17354
    endloop
  endfacet
  facet normal -1 0 0
    outer loop
      vertex 81.1333 1.63961 10
      vertex 81.1333 3.74053 4.17354
      vertex 81.1333 2.64839 5.78433
    endloop
  endfacet
  facet normal -1 0 0
    outer loop
      vertex 81.1333 1.63961 10
      vertex 81.1333 2.64839 5.78433
      vertex 81.1333 1.92805 7.59225
    endloop
  endfacet
  facet normal -1 0 0
    outer loop
      vertex 81.1333 10.6 1
      vertex 81.1333 1.63961 10
      vertex 81.1333 1.60001 20
    endloop
  endfacet
  facet normal -1 0 0
    outer loop
      vertex 81.1333 1.60001 20
      vertex 81.1333 1.63961 10
      vertex 81.1333 1.60001 10
    endloop
  endfacet
  facet normal -1 0 0
    outer loop
      vertex 81.1333 10.6 1
      vertex 81.1333 1.60001 20
      vertex 81.1333 88.4 20
    endloop
  endfacet
  facet normal 0 1 -0
    outer loop
      vertex 81.1333 1.60001 10
      vertex 1.60001 1.60001 20
      vertex 81.1333 1.60001 20
    endloop
  endfacet
  facet normal 0 1 0
    outer loop
      vertex 1.60001 1.60001 20
      vertex 81.1333 1.60001 10
      vertex 1.60001 1.60001 10
    endloop
  endfacet
  facet normal -0 0.108121 0.994138
    outer loop
      vertex 1.60001 10.6 1
      vertex 81.1333 8.66526 1.21042
      vertex 81.1333 10.6 1
    endloop
  endfacet
  facet normal 0 0.108121 0.994138
    outer loop
      vertex 81.1333 8.66526 1.21042
      vertex 1.60001 10.6 1
      vertex 1.60001 8.66526 1.21042
    endloop
  endfacet
  facet normal -0 0.319303 0.947653
    outer loop
      vertex 1.60001 8.66526 1.21042
      vertex 81.1333 6.82099 1.83183
      vertex 81.1333 8.66526 1.21042
    endloop
  endfacet
  facet normal 0 0.319303 0.947653
    outer loop
      vertex 81.1333 6.82099 1.83183
      vertex 1.60001 8.66526 1.21042
      vertex 1.60001 6.82099 1.83183
    endloop
  endfacet
  facet normal -0 0.515553 0.856858
    outer loop
      vertex 1.60001 6.82099 1.83183
      vertex 81.1333 5.15342 2.83517
      vertex 81.1333 6.82099 1.83183
    endloop
  endfacet
  facet normal 0 0.515553 0.856858
    outer loop
      vertex 81.1333 5.15342 2.83517
      vertex 1.60001 6.82099 1.83183
      vertex 1.60001 5.15342 2.83517
    endloop
  endfacet
  facet normal -0 0.687702 0.725993
    outer loop
      vertex 1.60001 5.15342 2.83517
      vertex 81.1333 3.74053 4.17354
      vertex 81.1333 5.15342 2.83517
    endloop
  endfacet
  facet normal 0 0.687702 0.725993
    outer loop
      vertex 81.1333 3.74053 4.17354
      vertex 1.60001 5.15342 2.83517
      vertex 1.60001 3.74053 4.17354
    endloop
  endfacet
  facet normal 8.62525e-20 0.82769 0.561186
    outer loop
      vertex 81.1333 3.74053 4.17354
      vertex 1.60001 2.64839 5.78433
      vertex 81.1333 2.64839 5.78433
    endloop
  endfacet
  facet normal 8.62525e-20 0.82769 0.561186
    outer loop
      vertex 1.60001 2.64839 5.78433
      vertex 81.1333 3.74053 4.17354
      vertex 1.60001 3.74053 4.17354
    endloop
  endfacet
  facet normal -1.81996e-19 0.928977 0.370138
    outer loop
      vertex 81.1333 2.64839 5.78433
      vertex 1.60001 1.92805 7.59225
      vertex 81.1333 1.92805 7.59225
    endloop
  endfacet
  facet normal -1.81996e-19 0.928977 0.370138
    outer loop
      vertex 1.60001 1.92805 7.59225
      vertex 81.1333 2.64839 5.78433
      vertex 1.60001 2.64839 5.78433
    endloop
  endfacet
  facet normal -3.23374e-19 0.986827 0.161781
    outer loop
      vertex 81.1333 1.92805 7.59225
      vertex 1.60001 1.6132 9.51276
      vertex 81.1333 1.6132 9.51276
    endloop
  endfacet
  facet normal -3.23374e-19 0.986827 0.161781
    outer loop
      vertex 1.60001 1.6132 9.51276
      vertex 81.1333 1.92805 7.59225
      vertex 1.60001 1.92805 7.59225
    endloop
  endfacet
  facet normal -1.28172e-20 0.998534 -0.0541238
    outer loop
      vertex 81.1333 1.6132 9.51276
      vertex 1.60001 1.63961 10
      vertex 81.1333 1.63961 10
    endloop
  endfacet
  facet normal -1.28172e-20 0.998534 -0.0541238
    outer loop
      vertex 1.60001 1.63961 10
      vertex 81.1333 1.6132 9.51276
      vertex 1.60001 1.6132 9.51276
    endloop
  endfacet
  facet normal -0 0 1
    outer loop
      vertex 1.60001 1.63961 10
      vertex 81.1333 1.60001 10
      vertex 81.1333 1.63961 10
    endloop
  endfacet
  facet normal 0 0 1
    outer loop
      vertex 81.1333 1.60001 10
      vertex 1.60001 1.63961 10
      vertex 1.60001 1.60001 10
    endloop
  endfacet
  facet normal -0 0 1
    outer loop
      vertex 82.7333 88.4 1
      vertex 162.267 10.6 1
      vertex 162.267 88.4 1
    endloop
  endfacet
  facet normal 0 0 1
    outer loop
      vertex 162.267 10.6 1
      vertex 82.7333 88.4 1
      vertex 82.7333 10.6 1
    endloop
  endfacet
  facet normal 1 0 0
    outer loop
      vertex 82.7333 88.4 20
      vertex 82.7333 10.6 1
      vertex 82.7333 88.4 1
    endloop
  endfacet
  facet normal 1 -0 0
    outer loop
      vertex 82.7333 1.60001 20
      vertex 82.7333 10.6 1
      vertex 82.7333 88.4 20
    endloop
  endfacet
  facet normal 1 -0 -0
    outer loop
      vertex 82.7333 1.63961 10
      vertex 82.7333 10.6 1
      vertex 82.7333 1.60001 20
    endloop
  endfacet
  facet normal 1 0 0
    outer loop
      vertex 82.7333 10.6 1
      vertex 82.7333 1.63961 10
      vertex 82.7333 8.66526 1.21042
    endloop
  endfacet
  facet normal 1 0 0
    outer loop
      vertex 82.7333 8.66526 1.21042
      vertex 82.7333 1.63961 10
      vertex 82.7333 6.82099 1.83183
    endloop
  endfacet
  facet normal 1 0 0
    outer loop
      vertex 82.7333 6.82099 1.83183
      vertex 82.7333 1.63961 10
      vertex 82.7333 5.15342 2.83517
    endloop
  endfacet
  facet normal 1 0 0
    outer loop
      vertex 82.7333 5.15342 2.83517
      vertex 82.7333 1.63961 10
      vertex 82.7333 3.74053 4.17354
    endloop
  endfacet
  facet normal 1 0 0
    outer loop
      vertex 82.7333 2.64839 5.78433
      vertex 82.7333 1.63961 10
      vertex 82.7333 1.92805 7.59225
    endloop
  endfacet
  facet normal 1 0 0
    outer loop
      vertex 82.7333 3.74053 4.17354
      vertex 82.7333 1.63961 10
      vertex 82.7333 2.64839 5.78433
    endloop
  endfacet
  facet normal 1 0 0
    outer loop
      vertex 82.7333 1.63961 10
      vertex 82.7333 1.60001 20
      vertex 82.7333 1.60001 10
    endloop
  endfacet
  facet normal 1 0 0
    outer loop
      vertex 82.7333 1.92805 7.59225
      vertex 82.7333 1.63961 10
      vertex 82.7333 1.6132 9.51276
    endloop
  endfacet
  facet normal 0 -1 0
    outer loop
      vertex 82.7333 88.4 1
      vertex 162.267 88.4 20
      vertex 82.7333 88.4 20
    endloop
  endfacet
  facet normal 0 -1 -0
    outer loop
      vertex 162.267 88.4 20
      vertex 82.7333 88.4 1
      vertex 162.267 88.4 1
    endloop
  endfacet
  facet normal -1 0 0
    outer loop
      vertex 162.267 1.92805 7.59225
      vertex 162.267 1.6132 9.51276
      vertex 162.267 1.63961 10
    endloop
  endfacet
  facet normal -1 0 0
    outer loop
      vertex 162.267 10.6 1
      vertex 162.267 88.4 20
      vertex 162.267 88.4 1
    endloop
  endfacet
  facet normal -1 0 0
    outer loop
      vertex 162.267 1.63961 10
      vertex 162.267 10.6 1
      vertex 162.267 8.66526 1.21042
    endloop
  endfacet
  facet normal -1 0 0
    outer loop
      vertex 162.267 1.63961 10
      vertex 162.267 8.66526 1.21042
      vertex 162.267 6.82099 1.83183
    endloop
  endfacet
  facet normal -1 0 0
    outer loop
      vertex 162.267 1.63961 10
      vertex 162.267 6.82099 1.83183
      vertex 162.267 5.15342 2.83517
    endloop
  endfacet
  facet normal -1 0 0
    outer loop
      vertex 162.267 1.63961 10
      vertex 162.267 5.15342 2.83517
      vertex 162.267 3.74053 4.17354
    endloop
  endfacet
  facet normal -1 0 0
    outer loop
      vertex 162.267 1.63961 10
      vertex 162.267 3.74053 4.17354
      vertex 162.267 2.64839 5.78433
    endloop
  endfacet
  facet normal -1 0 0
    outer loop
      vertex 162.267 1.63961 10
      vertex 162.267 2.64839 5.78433
      vertex 162.267 1.92805 7.59225
    endloop
  endfacet
  facet normal -1 0 0
    outer loop
      vertex 162.267 10.6 1
      vertex 162.267 1.63961 10
      vertex 162.267 1.60001 20
    endloop
  endfacet
  facet normal -1 0 0
    outer loop
      vertex 162.267 1.60001 20
      vertex 162.267 1.63961 10
      vertex 162.267 1.60001 10
    endloop
  endfacet
  facet normal -1 0 0
    outer loop
      vertex 162.267 10.6 1
      vertex 162.267 1.60001 20
      vertex 162.267 88.4 20
    endloop
  endfacet
  facet normal 0 1 -0
    outer loop
      vertex 162.267 1.60001 10
      vertex 82.7333 1.60001 20
      vertex 162.267 1.60001 20
    endloop
  endfacet
  facet normal 0 1 0
    outer loop
      vertex 82.7333 1.60001 20
      vertex 162.267 1.60001 10
      vertex 82.7333 1.60001 10
    endloop
  endfacet
  facet normal -0 0.108121 0.994138
    outer loop
      vertex 82.7333 10.6 1
      vertex 162.267 8.66526 1.21042
      vertex 162.267 10.6 1
    endloop
  endfacet
  facet normal 0 0.108121 0.994138
    outer loop
      vertex 162.267 8.66526 1.21042
      vertex 82.7333 10.6 1
      vertex 82.7333 8.66526 1.21042
    endloop
  endfacet
  facet normal -0 0.319303 0.947653
    outer loop
      vertex 82.7333 8.66526 1.21042
      vertex 162.267 6.82099 1.83183
      vertex 162.267 8.66526 1.21042
    endloop
  endfacet
  facet normal 0 0.319303 0.947653
    outer loop
      vertex 162.267 6.82099 1.83183
      vertex 82.7333 8.66526 1.21042
      vertex 82.7333 6.82099 1.83183
    endloop
  endfacet
  facet normal -0 0.515553 0.856858
    outer loop
      vertex 82.7333 6.82099 1.83183
      vertex 162.267 5.15342 2.83517
      vertex 162.267 6.82099 1.83183
    endloop
  endfacet
  facet normal 0 0.515553 0.856858
    outer loop
      vertex 162.267 5.15342 2.83517
      vertex 82.7333 6.82099 1.83183
      vertex 82.7333 5.15342 2.83517
    endloop
  endfacet
  facet normal -0 0.687702 0.725993
    outer loop
      vertex 82.7333 5.15342 2.83517
      vertex 162.267 3.74053 4.17354
      vertex 162.267 5.15342 2.83517
    endloop
  endfacet
  facet normal 0 0.687702 0.725993
    outer loop
      vertex 162.267 3.74053 4.17354
      vertex 82.7333 5.15342 2.83517
      vertex 82.7333 3.74053 4.17354
    endloop
  endfacet
  facet normal 8.6252e-20 0.82769 0.561186
    outer loop
      vertex 162.267 3.74053 4.17354
      vertex 82.7333 2.64839 5.78433
      vertex 162.267 2.64839 5.78433
    endloop
  endfacet
  facet normal 8.6252e-20 0.82769 0.561186
    outer loop
      vertex 82.7333 2.64839 5.78433
      vertex 162.267 3.74053 4.17354
      vertex 82.7333 3.74053 4.17354
    endloop
  endfacet
  facet normal -1.81995e-19 0.928977 0.370138
    outer loop
      vertex 162.267 2.64839 5.78433
      vertex 82.7333 1.92805 7.59225
      vertex 162.267 1.92805 7.59225
    endloop
  endfacet
  facet normal -1.81995e-19 0.928977 0.370138
    outer loop
      vertex 82.7333 1.92805 7.59225
      vertex 162.267 2.64839 5.78433
      vertex 82.7333 2.64839 5.78433
    endloop
  endfacet
  facet normal -3.23372e-19 0.986827 0.161781
    outer loop
      vertex 162.267 1.92805 7.59225
      vertex 82.7333 1.6132 9.51276
      vertex 162.267 1.6132 9.51276
    endloop
  endfacet
  facet normal -3.23372e-19 0.986827 0.161781
    outer loop
      vertex 82.7333 1.6132 9.51276
      vertex 162.267 1.92805 7.59225
      vertex 82.7333 1.92805 7.59225
    endloop
  endfacet
  facet normal -1.28171e-20 0.998534 -0.0541238
    outer loop
      vertex 162.267 1.6132 9.51276
      vertex 82.7333 1.63961 10
      vertex 162.267 1.63961 10
    endloop
  endfacet
  facet normal -1.28171e-20 0.998534 -0.0541238
    outer loop
      vertex 82.7333 1.63961 10
      vertex 162.267 1.6132 9.51276
      vertex 82.7333 1.6132 9.51276
    endloop
  endfacet
  facet normal -0 0 1
    outer loop
      vertex 82.7333 1.63961 10
      vertex 162.267 1.60001 10
      vertex 162.267 1.63961 10
    endloop
  endfacet
  facet normal 0 0 1
    outer loop
      vertex 162.267 1.60001 10
      vertex 82.7333 1.63961 10
      vertex 82.7333 1.60001 10
    endloop
  endfacet
  facet normal -0 0 1
    outer loop
      vertex 163.867 88.4 1
      vertex 243.4 10.6 1
      vertex 243.4 88.4 1
    endloop
  endfacet
  facet normal 0 0 1
    outer loop
      vertex 243.4 10.6 1
      vertex 163.867 88.4 1
      vertex 163.867 10.6 1
    endloop
  endfacet
  facet normal 1 0 0
    outer loop
      vertex 245 1.63961 10
      vertex 245 8.58307e-06 10
      vertex 245 1.6132 9.51276
    endloop
  endfacet
  facet normal 1 -0 0
    outer loop
      vertex 245 10.6 1
      vertex 245 90 0
      vertex 245 90 1
    endloop
  endfacet
  facet normal 1 0 0
    outer loop
      vertex 245 8.58307e-06 10
      vertex 245 1.92805 7.59225
      vertex 245 1.6132 9.51276
    endloop
  endfacet
  facet normal 1 0 0
    outer loop
      vertex 245 8.58307e-06 1
      vertex 245 1.92805 7.59225
      vertex 245 8.58307e-06 10
    endloop
  endfacet
  facet normal 1 0 0
    outer loop
      vertex 245 1.92805 7.59225
      vertex 245 8.58307e-06 1
      vertex 245 2.64839 5.78433
    endloop
  endfacet
  facet normal 1 0 0
    outer loop
      vertex 245 8.58307e-06 1
      vertex 245 3.74053 4.17354
      vertex 245 2.64839 5.78433
    endloop
  endfacet
  facet normal 1 0 0
    outer loop
      vertex 245 8.58307e-06 1
      vertex 245 5.15342 2.83517
      vertex 245 3.74053 4.17354
    endloop
  endfacet
  facet normal 1 0 0
    outer loop
      vertex 245 0 0
      vertex 245 5.15342 2.83517
      vertex 245 8.58307e-06 1
    endloop
  endfacet
  facet normal 1 0 0
    outer loop
      vertex 245 5.15342 2.83517
      vertex 245 0 0
      vertex 245 6.82099 1.83183
    endloop
  endfacet
  facet normal 1 0 0
    outer loop
      vertex 245 6.82099 1.83183
      vertex 245 0 0
      vertex 245 8.66526 1.21042
    endloop
  endfacet
  facet normal 1 0 0
    outer loop
      vertex 245 8.66526 1.21042
      vertex 245 0 0
      vertex 245 10.6 1
    endloop
  endfacet
  facet normal 1 0 0
    outer loop
      vertex 245 0 0
      vertex 245 8.58307e-06 1
      vertex 245 0 1
    endloop
  endfacet
  facet normal 1 0 0
    outer loop
      vertex 245 10.6 1
      vertex 245 0 0
      vertex 245 90 0
    endloop
  endfacet
  facet normal 1 0 0
    outer loop
      vertex 245 90 20
      vertex 245 10.6 1
      vertex 245 90 1
    endloop
  endfacet
  facet normal 1 -0 0
    outer loop
      vertex 245 0 20
      vertex 245 10.6 1
      vertex 245 90 20
    endloop
  endfacet
  facet normal 1 -0 -0
    outer loop
      vertex 245 1.63961 10
      vertex 245 10.6 1
      vertex 245 0 20
    endloop
  endfacet
  facet normal 1 0 0
    outer loop
      vertex 245 10.6 1
      vertex 245 1.63961 10
      vertex 245 8.66526 1.21042
    endloop
  endfacet
  facet normal 1 0 0
    outer loop
      vertex 245 8.66526 1.21042
      vertex 245 1.63961 10
      vertex 245 6.82099 1.83183
    endloop
  endfacet
  facet normal 1 0 0
    outer loop
      vertex 245 5.15342 2.83517
      vertex 245 1.63961 10
      vertex 245 3.74053 4.17354
    endloop
  endfacet
  facet normal 1 0 0
    outer loop
      vertex 245 3.74053 4.17354
      vertex 245 1.63961 10
      vertex 245 2.64839 5.78433
    endloop
  endfacet
  facet normal 1 0 0
    outer loop
      vertex 245 2.64839 5.78433
      vertex 245 1.63961 10
      vertex 245 1.92805 7.59225
    endloop
  endfacet
  facet normal 1 0 0
    outer loop
      vertex 245 6.82099 1.83183
      vertex 245 1.63961 10
      vertex 245 5.15342 2.83517
    endloop
  endfacet
  facet normal 1 0 0
    outer loop
      vertex 245 1.63961 10
      vertex 245 0 20
      vertex 245 8.58307e-06 10
    endloop
  endfacet
  facet normal 1 0 0
    outer loop
      vertex 245 0 1
      vertex 245 8.58307e-06 10
      vertex 245 0 20
    endloop
  endfacet
  facet normal 1 0 0
    outer loop
      vertex 245 8.58307e-06 10
      vertex 245 0 1
      vertex 245 8.58307e-06 1
    endloop
  endfacet
  facet normal 1 0 0
    outer loop
      vertex 245 1.92805 7.59225
      vertex 245 1.63961 10
      vertex 245 1.6132 9.51276
    endloop
  endfacet
  facet normal 1 0 0
    outer loop
      vertex 163.867 88.4 20
      vertex 163.867 10.6 1
      vertex 163.867 88.4 1
    endloop
  endfacet
  facet normal 1 -0 0
    outer loop
      vertex 163.867 1.60001 20
      vertex 163.867 10.6 1
      vertex 163.867 88.4 20
    endloop
  endfacet
  facet normal 1 -0 -0
    outer loop
      vertex 163.867 1.63961 10
      vertex 163.867 10.6 1
      vertex 163.867 1.60001 20
    endloop
  endfacet
  facet normal 1 0 0
    outer loop
      vertex 163.867 10.6 1
      vertex 163.867 1.63961 10
      vertex 163.867 8.66526 1.21042
    endloop
  endfacet
  facet normal 1 0 0
    outer loop
      vertex 163.867 8.66526 1.21042
      vertex 163.867 1.63961 10
      vertex 163.867 6.82099 1.83183
    endloop
  endfacet
  facet normal 1 0 0
    outer loop
      vertex 163.867 6.82099 1.83183
      vertex 163.867 1.63961 10
      vertex 163.867 5.15342 2.83517
    endloop
  endfacet
  facet normal 1 0 0
    outer loop
      vertex 163.867 5.15342 2.83517
      vertex 163.867 1.63961 10
      vertex 163.867 3.74053 4.17354
    endloop
  endfacet
  facet normal 1 0 0
    outer loop
      vertex 163.867 2.64839 5.78433
      vertex 163.867 1.63961 10
      vertex 163.867 1.92805 7.59225
    endloop
  endfacet
  facet normal 1 0 0
    outer loop
      vertex 163.867 3.74053 4.17354
      vertex 163.867 1.63961 10
      vertex 163.867 2.64839 5.78433
    endloop
  endfacet
  facet normal 1 0 0
    outer loop
      vertex 163.867 1.63961 10
      vertex 163.867 1.60001 20
      vertex 163.867 1.60001 10
    endloop
  endfacet
  facet normal 1 0 0
    outer loop
      vertex 163.867 1.92805 7.59225
      vertex 163.867 1.63961 10
      vertex 163.867 1.6132 9.51276
    endloop
  endfacet
  facet normal 0 -1 0
    outer loop
      vertex 163.867 88.4 1
      vertex 243.4 88.4 20
      vertex 163.867 88.4 20
    endloop
  endfacet
  facet normal 0 -1 -0
    outer loop
      vertex 243.4 88.4 20
      vertex 163.867 88.4 1
      vertex 243.4 88.4 1
    endloop
  endfacet
  facet normal -1 0 0
    outer loop
      vertex 243.4 1.92805 7.59225
      vertex 243.4 1.6132 9.51276
      vertex 243.4 1.63961 10
    endloop
  endfacet
  facet normal -1 0 0
    outer loop
      vertex 243.4 10.6 1
      vertex 243.4 88.4 20
      vertex 243.4 88.4 1
    endloop
  endfacet
  facet normal -1 0 0
    outer loop
      vertex 243.4 1.63961 10
      vertex 243.4 10.6 1
      vertex 243.4 8.66526 1.21042
    endloop
  endfacet
  facet normal -1 0 0
    outer loop
      vertex 243.4 1.63961 10
      vertex 243.4 8.66526 1.21042
      vertex 243.4 6.82099 1.83183
    endloop
  endfacet
  facet normal -1 0 0
    outer loop
      vertex 243.4 1.63961 10
      vertex 243.4 6.82099 1.83183
      vertex 243.4 5.15342 2.83517
    endloop
  endfacet
  facet normal -1 0 0
    outer loop
      vertex 243.4 1.63961 10
      vertex 243.4 5.15342 2.83517
      vertex 243.4 3.74053 4.17354
    endloop
  endfacet
  facet normal -1 0 0
    outer loop
      vertex 243.4 1.63961 10
      vertex 243.4 3.74053 4.17354
      vertex 243.4 2.64839 5.78433
    endloop
  endfacet
  facet normal -1 0 0
    outer loop
      vertex 243.4 1.63961 10
      vertex 243.4 2.64839 5.78433
      vertex 243.4 1.92805 7.59225
    endloop
  endfacet
  facet normal -1 0 0
    outer loop
      vertex 243.4 10.6 1
      vertex 243.4 1.63961 10
      vertex 243.4 1.60001 20
    endloop
  endfacet
  facet normal -1 0 0
    outer loop
      vertex 243.4 1.60001 20
      vertex 243.4 1.63961 10
      vertex 243.4 1.60001 10
    endloop
  endfacet
  facet normal -1 0 0
    outer loop
      vertex 243.4 10.6 1
      vertex 243.4 1.60001 20
      vertex 243.4 88.4 20
    endloop
  endfacet
  facet normal 0 1 -0
    outer loop
      vertex 243.4 1.60001 10
      vertex 163.867 1.60001 20
      vertex 243.4 1.60001 20
    endloop
  endfacet
  facet normal 0 1 0
    outer loop
      vertex 163.867 1.60001 20
      vertex 243.4 1.60001 10
      vertex 163.867 1.60001 10
    endloop
  endfacet
  facet normal -0 0.108121 0.994138
    outer loop
      vertex 163.867 10.6 1
      vertex 243.4 8.66526 1.21042
      vertex 243.4 10.6 1
    endloop
  endfacet
  facet normal 0 0.108121 0.994138
    outer loop
      vertex 243.4 8.66526 1.21042
      vertex 163.867 10.6 1
      vertex 163.867 8.66526 1.21042
    endloop
  endfacet
  facet normal -0 0.319303 0.947653
    outer loop
      vertex 163.867 8.66526 1.21042
      vertex 243.4 6.82099 1.83183
      vertex 243.4 8.66526 1.21042
    endloop
  endfacet
  facet normal 0 0.319303 0.947653
    outer loop
      vertex 243.4 6.82099 1.83183
      vertex 163.867 8.66526 1.21042
      vertex 163.867 6.82099 1.83183
    endloop
  endfacet
  facet normal -0 0.515553 0.856858
    outer loop
      vertex 163.867 6.82099 1.83183
      vertex 243.4 5.15342 2.83517
      vertex 243.4 6.82099 1.83183
    endloop
  endfacet
  facet normal 0 0.515553 0.856858
    outer loop
      vertex 243.4 5.15342 2.83517
      vertex 163.867 6.82099 1.83183
      vertex 163.867 5.15342 2.83517
    endloop
  endfacet
  facet normal -0 0.687702 0.725993
    outer loop
      vertex 163.867 5.15342 2.83517
      vertex 243.4 3.74053 4.17354
      vertex 243.4 5.15342 2.83517
    endloop
  endfacet
  facet normal 0 0.687702 0.725993
    outer loop
      vertex 243.4 3.74053 4.17354
      vertex 163.867 5.15342 2.83517
      vertex 163.867 3.74053 4.17354
    endloop
  endfacet
  facet normal 8.62528e-20 0.82769 0.561186
    outer loop
      vertex 243.4 3.74053 4.17354
      vertex 163.867 2.64839 5.78433
      vertex 243.4 2.64839 5.78433
    endloop
  endfacet
  facet normal 8.62528e-20 0.82769 0.561186
    outer loop
      vertex 163.867 2.64839 5.78433
      vertex 243.4 3.74053 4.17354
      vertex 163.867 3.74053 4.17354
    endloop
  endfacet
  facet normal -1.81997e-19 0.928977 0.370138
    outer loop
      vertex 243.4 2.64839 5.78433
      vertex 163.867 1.92805 7.59225
      vertex 243.4 1.92805 7.59225
    endloop
  endfacet
  facet normal -1.81997e-19 0.928977 0.370138
    outer loop
      vertex 163.867 1.92805 7.59225
      vertex 243.4 2.64839 5.78433
      vertex 163.867 2.64839 5.78433
    endloop
  endfacet
  facet normal -3.23375e-19 0.986827 0.161781
    outer loop
      vertex 243.4 1.92805 7.59225
      vertex 163.867 1.6132 9.51276
      vertex 243.4 1.6132 9.51276
    endloop
  endfacet
  facet normal -3.23375e-19 0.986827 0.161781
    outer loop
      vertex 163.867 1.6132 9.51276
      vertex 243.4 1.92805 7.59225
      vertex 163.867 1.92805 7.59225
    endloop
  endfacet
  facet normal -1.28172e-20 0.998534 -0.0541238
    outer loop
      vertex 243.4 1.6132 9.51276
      vertex 163.867 1.63961 10
      vertex 243.4 1.63961 10
    endloop
  endfacet
  facet normal -1.28172e-20 0.998534 -0.0541238
    outer loop
      vertex 163.867 1.63961 10
      vertex 243.4 1.6132 9.51276
      vertex 163.867 1.6132 9.51276
    endloop
  endfacet
  facet normal -0 0 1
    outer loop
      vertex 163.867 1.63961 10
      vertex 243.4 1.60001 10
      vertex 243.4 1.63961 10
    endloop
  endfacet
  facet normal 0 0 1
    outer loop
      vertex 243.4 1.60001 10
      vertex 163.867 1.63961 10
      vertex 163.867 1.60001 10
    endloop
  endfacet
endsolid OpenSCAD_Model
