solid OpenSCAD_Model
  facet normal 0 0 -1
    outer loop
      vertex 0 0 0
      vertex 245 90 0
      vertex 245 0 0
    endloop
  endfacet
  facet normal -0 0 -1
    outer loop
      vertex 245 90 0
      vertex 0 0 0
      vertex 0 90 0
    endloop
  endfacet
  facet normal -1 0 0
    outer loop
      vertex 0 0 0
      vertex 0 90 20
      vertex 0 90 0
    endloop
  endfacet
  facet normal -1 -0 0
    outer loop
      vertex 0 90 20
      vertex 0 0 0
      vertex 0 0 20
    endloop
  endfacet
  facet normal -0 0 1
    outer loop
      vertex 1.60001 88.4 1
      vertex 60.85 20.6 1
      vertex 60.85 88.4 1
    endloop
  endfacet
  facet normal 0 0 1
    outer loop
      vertex 60.85 20.6 1
      vertex 1.60001 88.4 1
      vertex 1.60001 20.6 1
    endloop
  endfacet
  facet normal -0 0 1
    outer loop
      vertex 184.15 88.4 1
      vertex 243.4 20.6 1
      vertex 243.4 88.4 1
    endloop
  endfacet
  facet normal 0 0 1
    outer loop
      vertex 243.4 20.6 1
      vertex 184.15 88.4 1
      vertex 184.15 20.6 1
    endloop
  endfacet
  facet normal -0 0 1
    outer loop
      vertex 62.45 88.4 1
      vertex 121.7 20.6 1
      vertex 121.7 88.4 1
    endloop
  endfacet
  facet normal 0 0 1
    outer loop
      vertex 121.7 20.6 1
      vertex 62.45 88.4 1
      vertex 62.45 20.6 1
    endloop
  endfacet
  facet normal -0 0 1
    outer loop
      vertex 123.3 88.4 1
      vertex 182.55 20.6 1
      vertex 182.55 88.4 1
    endloop
  endfacet
  facet normal 0 0 1
    outer loop
      vertex 182.55 20.6 1
      vertex 123.3 88.4 1
      vertex 123.3 20.6 1
    endloop
  endfacet
  facet normal 0 1 -0
    outer loop
      vertex 245 90 0
      vertex 0 90 20
      vertex 245 90 20
    endloop
  endfacet
  facet normal 0 1 0
    outer loop
      vertex 0 90 20
      vertex 245 90 0
      vertex 0 90 0
    endloop
  endfacet
  facet normal 1 -0 0
    outer loop
      vertex 245 0 20
      vertex 245 90 0
      vertex 245 90 20
    endloop
  endfacet
  facet normal 1 0 0
    outer loop
      vertex 245 90 0
      vertex 245 0 20
      vertex 245 0 0
    endloop
  endfacet
  facet normal 0 -1 0
    outer loop
      vertex 0 0 0
      vertex 245 0 20
      vertex 0 0 20
    endloop
  endfacet
  facet normal 0 -1 -0
    outer loop
      vertex 245 0 20
      vertex 0 0 0
      vertex 245 0 0
    endloop
  endfacet
  facet normal 0 0 1
    outer loop
      vertex 245 90 20
      vertex 243.4 88.4 20
      vertex 245 0 20
    endloop
  endfacet
  facet normal 0 0 1
    outer loop
      vertex 245 90 20
      vertex 184.15 88.4 20
      vertex 243.4 88.4 20
    endloop
  endfacet
  facet normal 0 0 1
    outer loop
      vertex 184.15 88.4 20
      vertex 182.55 88.4 20
      vertex 184.15 1.60001 20
    endloop
  endfacet
  facet normal 0 0 1
    outer loop
      vertex 245 90 20
      vertex 182.55 88.4 20
      vertex 184.15 88.4 20
    endloop
  endfacet
  facet normal 0 0 1
    outer loop
      vertex 245 90 20
      vertex 123.3 88.4 20
      vertex 182.55 88.4 20
    endloop
  endfacet
  facet normal 0 0 1
    outer loop
      vertex 123.3 88.4 20
      vertex 121.7 88.4 20
      vertex 123.3 1.60001 20
    endloop
  endfacet
  facet normal 0 0 1
    outer loop
      vertex 245 90 20
      vertex 121.7 88.4 20
      vertex 123.3 88.4 20
    endloop
  endfacet
  facet normal -0 0 1
    outer loop
      vertex 0 90 20
      vertex 121.7 88.4 20
      vertex 245 90 20
    endloop
  endfacet
  facet normal 0 0 1
    outer loop
      vertex 62.45 88.4 20
      vertex 60.85 88.4 20
      vertex 62.45 1.60001 20
    endloop
  endfacet
  facet normal 0 0 1
    outer loop
      vertex 121.7 88.4 20
      vertex 0 90 20
      vertex 62.45 88.4 20
    endloop
  endfacet
  facet normal 0 0 1
    outer loop
      vertex 62.45 88.4 20
      vertex 0 90 20
      vertex 60.85 88.4 20
    endloop
  endfacet
  facet normal 0 0 1
    outer loop
      vertex 1.60001 88.4 20
      vertex 0 90 20
      vertex 1.60001 1.60001 20
    endloop
  endfacet
  facet normal 0 0 1
    outer loop
      vertex 60.85 88.4 20
      vertex 0 90 20
      vertex 1.60001 88.4 20
    endloop
  endfacet
  facet normal -0 0 1
    outer loop
      vertex 243.4 1.60001 20
      vertex 245 0 20
      vertex 243.4 88.4 20
    endloop
  endfacet
  facet normal -0 0 1
    outer loop
      vertex 184.15 1.60001 20
      vertex 245 0 20
      vertex 243.4 1.60001 20
    endloop
  endfacet
  facet normal 0 0 1
    outer loop
      vertex 182.55 1.60001 20
      vertex 184.15 1.60001 20
      vertex 182.55 88.4 20
    endloop
  endfacet
  facet normal -0 0 1
    outer loop
      vertex 182.55 1.60001 20
      vertex 245 0 20
      vertex 184.15 1.60001 20
    endloop
  endfacet
  facet normal -0 0 1
    outer loop
      vertex 123.3 1.60001 20
      vertex 245 0 20
      vertex 182.55 1.60001 20
    endloop
  endfacet
  facet normal 0 0 1
    outer loop
      vertex 121.7 1.60001 20
      vertex 123.3 1.60001 20
      vertex 121.7 88.4 20
    endloop
  endfacet
  facet normal -0 0 1
    outer loop
      vertex 121.7 1.60001 20
      vertex 245 0 20
      vertex 123.3 1.60001 20
    endloop
  endfacet
  facet normal 0 0 1
    outer loop
      vertex 0 0 20
      vertex 121.7 1.60001 20
      vertex 62.45 1.60001 20
    endloop
  endfacet
  facet normal 0 0 1
    outer loop
      vertex 60.85 1.60001 20
      vertex 62.45 1.60001 20
      vertex 60.85 88.4 20
    endloop
  endfacet
  facet normal 0 0 1
    outer loop
      vertex 0 0 20
      vertex 62.45 1.60001 20
      vertex 60.85 1.60001 20
    endloop
  endfacet
  facet normal 0 0 1
    outer loop
      vertex 0 0 20
      vertex 60.85 1.60001 20
      vertex 1.60001 1.60001 20
    endloop
  endfacet
  facet normal 0 0 1
    outer loop
      vertex 121.7 1.60001 20
      vertex 0 0 20
      vertex 245 0 20
    endloop
  endfacet
  facet normal 0 0 1
    outer loop
      vertex 0 0 20
      vertex 1.60001 1.60001 20
      vertex 0 90 20
    endloop
  endfacet
  facet normal 1 0 0
    outer loop
      vertex 1.60001 88.4 20
      vertex 1.60001 20.6 1.10408
      vertex 1.60001 88.4 1
    endloop
  endfacet
  facet normal 1 -0 0
    outer loop
      vertex 1.60001 1.60001 20
      vertex 1.60001 20.6 1.10408
      vertex 1.60001 88.4 20
    endloop
  endfacet
  facet normal 1 -0 -0
    outer loop
      vertex 1.60001 11.1 3.54552
      vertex 1.60001 20.6 1.10408
      vertex 1.60001 1.60001 20
    endloop
  endfacet
  facet normal 1 0 0
    outer loop
      vertex 1.60001 20.6 1.10408
      vertex 1.60001 14.7287 1.92992
      vertex 1.60001 18.6139 1.10408
    endloop
  endfacet
  facet normal 1 0 0
    outer loop
      vertex 1.60001 20.6 1.10408
      vertex 1.60001 11.1 3.54552
      vertex 1.60001 14.7287 1.92992
    endloop
  endfacet
  facet normal 1 0 0
    outer loop
      vertex 1.60001 11.1 3.54552
      vertex 1.60001 1.60001 20
      vertex 1.60001 7.88651 5.88023
    endloop
  endfacet
  facet normal 1 0 0
    outer loop
      vertex 1.60001 7.88651 5.88023
      vertex 1.60001 1.60001 20
      vertex 1.60001 5.22866 8.83208
    endloop
  endfacet
  facet normal 1 0 0
    outer loop
      vertex 1.60001 5.22866 8.83208
      vertex 1.60001 1.60001 20
      vertex 1.60001 3.24262 12.272
    endloop
  endfacet
  facet normal 1 0 0
    outer loop
      vertex 1.60001 3.24262 12.272
      vertex 1.60001 1.60001 20
      vertex 1.60001 2.01519 16.0497
    endloop
  endfacet
  facet normal 1 0 0
    outer loop
      vertex 1.60001 2.01519 16.0497
      vertex 1.60001 1.60001 20
      vertex 1.60001 1.60001 19.9999
    endloop
  endfacet
  facet normal 1 0 0
    outer loop
      vertex 1.60001 88.4 1
      vertex 1.60001 20.6 1.10408
      vertex 1.60001 20.6 1
    endloop
  endfacet
  facet normal 0 -1 0
    outer loop
      vertex 184.15 88.4 1
      vertex 243.4 88.4 20
      vertex 184.15 88.4 20
    endloop
  endfacet
  facet normal 0 -1 -0
    outer loop
      vertex 243.4 88.4 20
      vertex 184.15 88.4 1
      vertex 243.4 88.4 1
    endloop
  endfacet
  facet normal 0 -1 0
    outer loop
      vertex 1.60001 88.4 1
      vertex 60.85 88.4 20
      vertex 1.60001 88.4 20
    endloop
  endfacet
  facet normal 0 -1 -0
    outer loop
      vertex 60.85 88.4 20
      vertex 1.60001 88.4 1
      vertex 60.85 88.4 1
    endloop
  endfacet
  facet normal 0 -1 0
    outer loop
      vertex 62.45 88.4 1
      vertex 121.7 88.4 20
      vertex 62.45 88.4 20
    endloop
  endfacet
  facet normal 0 -1 -0
    outer loop
      vertex 121.7 88.4 20
      vertex 62.45 88.4 1
      vertex 121.7 88.4 1
    endloop
  endfacet
  facet normal 0 -1 0
    outer loop
      vertex 123.3 88.4 1
      vertex 182.55 88.4 20
      vertex 123.3 88.4 20
    endloop
  endfacet
  facet normal 0 -1 -0
    outer loop
      vertex 182.55 88.4 20
      vertex 123.3 88.4 1
      vertex 182.55 88.4 1
    endloop
  endfacet
  facet normal -1 0 0
    outer loop
      vertex 243.4 20.6 1.10408
      vertex 243.4 88.4 1
      vertex 243.4 20.6 1
    endloop
  endfacet
  facet normal -1 0 0
    outer loop
      vertex 243.4 88.4 1
      vertex 243.4 20.6 1.10408
      vertex 243.4 88.4 20
    endloop
  endfacet
  facet normal -1 0 0
    outer loop
      vertex 243.4 14.7287 1.92992
      vertex 243.4 20.6 1.10408
      vertex 243.4 18.6139 1.10408
    endloop
  endfacet
  facet normal -1 0 0
    outer loop
      vertex 243.4 11.1 3.54552
      vertex 243.4 20.6 1.10408
      vertex 243.4 14.7287 1.92992
    endloop
  endfacet
  facet normal -1 0 0
    outer loop
      vertex 243.4 20.6 1.10408
      vertex 243.4 11.1 3.54552
      vertex 243.4 1.60001 20
    endloop
  endfacet
  facet normal -1 0 0
    outer loop
      vertex 243.4 1.60001 20
      vertex 243.4 11.1 3.54552
      vertex 243.4 7.88651 5.88023
    endloop
  endfacet
  facet normal -1 0 0
    outer loop
      vertex 243.4 1.60001 20
      vertex 243.4 7.88651 5.88023
      vertex 243.4 5.22866 8.83208
    endloop
  endfacet
  facet normal -1 0 0
    outer loop
      vertex 243.4 1.60001 20
      vertex 243.4 5.22866 8.83208
      vertex 243.4 3.24262 12.272
    endloop
  endfacet
  facet normal -1 0 0
    outer loop
      vertex 243.4 1.60001 20
      vertex 243.4 3.24262 12.272
      vertex 243.4 2.01519 16.0497
    endloop
  endfacet
  facet normal -1 0 0
    outer loop
      vertex 243.4 1.60001 20
      vertex 243.4 2.01519 16.0497
      vertex 243.4 1.60001 19.9999
    endloop
  endfacet
  facet normal -1 0 0
    outer loop
      vertex 243.4 20.6 1.10408
      vertex 243.4 1.60001 20
      vertex 243.4 88.4 20
    endloop
  endfacet
  facet normal 0 1 -0
    outer loop
      vertex 243.4 1.60001 19.9999
      vertex 184.15 1.60001 20
      vertex 243.4 1.60001 20
    endloop
  endfacet
  facet normal 0 1 0
    outer loop
      vertex 184.15 1.60001 20
      vertex 243.4 1.60001 19.9999
      vertex 184.15 1.60001 19.9999
    endloop
  endfacet
  facet normal 0 1 -0
    outer loop
      vertex 60.85 1.60001 19.9999
      vertex 1.60001 1.60001 20
      vertex 60.85 1.60001 20
    endloop
  endfacet
  facet normal 0 1 0
    outer loop
      vertex 1.60001 1.60001 20
      vertex 60.85 1.60001 19.9999
      vertex 1.60001 1.60001 19.9999
    endloop
  endfacet
  facet normal 0 1 -0
    outer loop
      vertex 121.7 1.60001 19.9999
      vertex 62.45 1.60001 20
      vertex 121.7 1.60001 20
    endloop
  endfacet
  facet normal 0 1 0
    outer loop
      vertex 62.45 1.60001 20
      vertex 121.7 1.60001 19.9999
      vertex 62.45 1.60001 19.9999
    endloop
  endfacet
  facet normal 0 1 -0
    outer loop
      vertex 182.55 1.60001 19.9999
      vertex 123.3 1.60001 20
      vertex 182.55 1.60001 20
    endloop
  endfacet
  facet normal 0 1 0
    outer loop
      vertex 123.3 1.60001 20
      vertex 182.55 1.60001 19.9999
      vertex 123.3 1.60001 19.9999
    endloop
  endfacet
  facet normal -1 0 0
    outer loop
      vertex 60.85 20.6 1.10408
      vertex 60.85 88.4 1
      vertex 60.85 20.6 1
    endloop
  endfacet
  facet normal -1 0 0
    outer loop
      vertex 60.85 88.4 1
      vertex 60.85 20.6 1.10408
      vertex 60.85 88.4 20
    endloop
  endfacet
  facet normal -1 0 0
    outer loop
      vertex 60.85 14.7287 1.92992
      vertex 60.85 20.6 1.10408
      vertex 60.85 18.6139 1.10408
    endloop
  endfacet
  facet normal -1 0 0
    outer loop
      vertex 60.85 11.1 3.54552
      vertex 60.85 20.6 1.10408
      vertex 60.85 14.7287 1.92992
    endloop
  endfacet
  facet normal -1 0 0
    outer loop
      vertex 60.85 20.6 1.10408
      vertex 60.85 11.1 3.54552
      vertex 60.85 1.60001 20
    endloop
  endfacet
  facet normal -1 0 0
    outer loop
      vertex 60.85 1.60001 20
      vertex 60.85 11.1 3.54552
      vertex 60.85 7.88651 5.88023
    endloop
  endfacet
  facet normal -1 0 0
    outer loop
      vertex 60.85 1.60001 20
      vertex 60.85 7.88651 5.88023
      vertex 60.85 5.22866 8.83208
    endloop
  endfacet
  facet normal -1 0 0
    outer loop
      vertex 60.85 1.60001 20
      vertex 60.85 5.22866 8.83208
      vertex 60.85 3.24262 12.272
    endloop
  endfacet
  facet normal -1 0 0
    outer loop
      vertex 60.85 1.60001 20
      vertex 60.85 3.24262 12.272
      vertex 60.85 2.01519 16.0497
    endloop
  endfacet
  facet normal -1 0 0
    outer loop
      vertex 60.85 1.60001 20
      vertex 60.85 2.01519 16.0497
      vertex 60.85 1.60001 19.9999
    endloop
  endfacet
  facet normal -1 0 0
    outer loop
      vertex 60.85 20.6 1.10408
      vertex 60.85 1.60001 20
      vertex 60.85 88.4 20
    endloop
  endfacet
  facet normal 1 0 0
    outer loop
      vertex 62.45 88.4 20
      vertex 62.45 20.6 1.10408
      vertex 62.45 88.4 1
    endloop
  endfacet
  facet normal 1 -0 0
    outer loop
      vertex 62.45 1.60001 20
      vertex 62.45 20.6 1.10408
      vertex 62.45 88.4 20
    endloop
  endfacet
  facet normal 1 -0 -0
    outer loop
      vertex 62.45 11.1 3.54552
      vertex 62.45 20.6 1.10408
      vertex 62.45 1.60001 20
    endloop
  endfacet
  facet normal 1 0 0
    outer loop
      vertex 62.45 20.6 1.10408
      vertex 62.45 14.7287 1.92992
      vertex 62.45 18.6139 1.10408
    endloop
  endfacet
  facet normal 1 0 0
    outer loop
      vertex 62.45 20.6 1.10408
      vertex 62.45 11.1 3.54552
      vertex 62.45 14.7287 1.92992
    endloop
  endfacet
  facet normal 1 0 0
    outer loop
      vertex 62.45 11.1 3.54552
      vertex 62.45 1.60001 20
      vertex 62.45 7.88651 5.88023
    endloop
  endfacet
  facet normal 1 0 0
    outer loop
      vertex 62.45 7.88651 5.88023
      vertex 62.45 1.60001 20
      vertex 62.45 5.22866 8.83208
    endloop
  endfacet
  facet normal 1 0 0
    outer loop
      vertex 62.45 5.22866 8.83208
      vertex 62.45 1.60001 20
      vertex 62.45 3.24262 12.272
    endloop
  endfacet
  facet normal 1 0 0
    outer loop
      vertex 62.45 3.24262 12.272
      vertex 62.45 1.60001 20
      vertex 62.45 2.01519 16.0497
    endloop
  endfacet
  facet normal 1 0 0
    outer loop
      vertex 62.45 2.01519 16.0497
      vertex 62.45 1.60001 20
      vertex 62.45 1.60001 19.9999
    endloop
  endfacet
  facet normal 1 0 0
    outer loop
      vertex 62.45 88.4 1
      vertex 62.45 20.6 1.10408
      vertex 62.45 20.6 1
    endloop
  endfacet
  facet normal -1 0 0
    outer loop
      vertex 121.7 20.6 1.10408
      vertex 121.7 88.4 1
      vertex 121.7 20.6 1
    endloop
  endfacet
  facet normal -1 0 0
    outer loop
      vertex 121.7 88.4 1
      vertex 121.7 20.6 1.10408
      vertex 121.7 88.4 20
    endloop
  endfacet
  facet normal -1 0 0
    outer loop
      vertex 121.7 14.7287 1.92992
      vertex 121.7 20.6 1.10408
      vertex 121.7 18.6139 1.10408
    endloop
  endfacet
  facet normal -1 0 0
    outer loop
      vertex 121.7 11.1 3.54552
      vertex 121.7 20.6 1.10408
      vertex 121.7 14.7287 1.92992
    endloop
  endfacet
  facet normal -1 0 0
    outer loop
      vertex 121.7 20.6 1.10408
      vertex 121.7 11.1 3.54552
      vertex 121.7 1.60001 20
    endloop
  endfacet
  facet normal -1 0 0
    outer loop
      vertex 121.7 1.60001 20
      vertex 121.7 11.1 3.54552
      vertex 121.7 7.88651 5.88023
    endloop
  endfacet
  facet normal -1 0 0
    outer loop
      vertex 121.7 1.60001 20
      vertex 121.7 7.88651 5.88023
      vertex 121.7 5.22866 8.83208
    endloop
  endfacet
  facet normal -1 0 0
    outer loop
      vertex 121.7 1.60001 20
      vertex 121.7 5.22866 8.83208
      vertex 121.7 3.24262 12.272
    endloop
  endfacet
  facet normal -1 0 0
    outer loop
      vertex 121.7 1.60001 20
      vertex 121.7 3.24262 12.272
      vertex 121.7 2.01519 16.0497
    endloop
  endfacet
  facet normal -1 0 0
    outer loop
      vertex 121.7 1.60001 20
      vertex 121.7 2.01519 16.0497
      vertex 121.7 1.60001 19.9999
    endloop
  endfacet
  facet normal -1 0 0
    outer loop
      vertex 121.7 20.6 1.10408
      vertex 121.7 1.60001 20
      vertex 121.7 88.4 20
    endloop
  endfacet
  facet normal 1 0 0
    outer loop
      vertex 123.3 88.4 20
      vertex 123.3 20.6 1.10408
      vertex 123.3 88.4 1
    endloop
  endfacet
  facet normal 1 -0 0
    outer loop
      vertex 123.3 1.60001 20
      vertex 123.3 20.6 1.10408
      vertex 123.3 88.4 20
    endloop
  endfacet
  facet normal 1 -0 -0
    outer loop
      vertex 123.3 11.1 3.54552
      vertex 123.3 20.6 1.10408
      vertex 123.3 1.60001 20
    endloop
  endfacet
  facet normal 1 0 0
    outer loop
      vertex 123.3 20.6 1.10408
      vertex 123.3 14.7287 1.92992
      vertex 123.3 18.6139 1.10408
    endloop
  endfacet
  facet normal 1 0 0
    outer loop
      vertex 123.3 20.6 1.10408
      vertex 123.3 11.1 3.54552
      vertex 123.3 14.7287 1.92992
    endloop
  endfacet
  facet normal 1 0 0
    outer loop
      vertex 123.3 11.1 3.54552
      vertex 123.3 1.60001 20
      vertex 123.3 7.88651 5.88023
    endloop
  endfacet
  facet normal 1 0 0
    outer loop
      vertex 123.3 7.88651 5.88023
      vertex 123.3 1.60001 20
      vertex 123.3 5.22866 8.83208
    endloop
  endfacet
  facet normal 1 0 0
    outer loop
      vertex 123.3 5.22866 8.83208
      vertex 123.3 1.60001 20
      vertex 123.3 3.24262 12.272
    endloop
  endfacet
  facet normal 1 0 0
    outer loop
      vertex 123.3 3.24262 12.272
      vertex 123.3 1.60001 20
      vertex 123.3 2.01519 16.0497
    endloop
  endfacet
  facet normal 1 0 0
    outer loop
      vertex 123.3 2.01519 16.0497
      vertex 123.3 1.60001 20
      vertex 123.3 1.60001 19.9999
    endloop
  endfacet
  facet normal 1 0 0
    outer loop
      vertex 123.3 88.4 1
      vertex 123.3 20.6 1.10408
      vertex 123.3 20.6 1
    endloop
  endfacet
  facet normal -1 0 0
    outer loop
      vertex 182.55 20.6 1.10408
      vertex 182.55 88.4 1
      vertex 182.55 20.6 1
    endloop
  endfacet
  facet normal -1 0 0
    outer loop
      vertex 182.55 88.4 1
      vertex 182.55 20.6 1.10408
      vertex 182.55 88.4 20
    endloop
  endfacet
  facet normal -1 0 0
    outer loop
      vertex 182.55 14.7287 1.92992
      vertex 182.55 20.6 1.10408
      vertex 182.55 18.6139 1.10408
    endloop
  endfacet
  facet normal -1 0 0
    outer loop
      vertex 182.55 11.1 3.54552
      vertex 182.55 20.6 1.10408
      vertex 182.55 14.7287 1.92992
    endloop
  endfacet
  facet normal -1 0 0
    outer loop
      vertex 182.55 20.6 1.10408
      vertex 182.55 11.1 3.54552
      vertex 182.55 1.60001 20
    endloop
  endfacet
  facet normal -1 0 0
    outer loop
      vertex 182.55 1.60001 20
      vertex 182.55 11.1 3.54552
      vertex 182.55 7.88651 5.88023
    endloop
  endfacet
  facet normal -1 0 0
    outer loop
      vertex 182.55 1.60001 20
      vertex 182.55 7.88651 5.88023
      vertex 182.55 5.22866 8.83208
    endloop
  endfacet
  facet normal -1 0 0
    outer loop
      vertex 182.55 1.60001 20
      vertex 182.55 5.22866 8.83208
      vertex 182.55 3.24262 12.272
    endloop
  endfacet
  facet normal -1 0 0
    outer loop
      vertex 182.55 1.60001 20
      vertex 182.55 3.24262 12.272
      vertex 182.55 2.01519 16.0497
    endloop
  endfacet
  facet normal -1 0 0
    outer loop
      vertex 182.55 1.60001 20
      vertex 182.55 2.01519 16.0497
      vertex 182.55 1.60001 19.9999
    endloop
  endfacet
  facet normal -1 0 0
    outer loop
      vertex 182.55 20.6 1.10408
      vertex 182.55 1.60001 20
      vertex 182.55 88.4 20
    endloop
  endfacet
  facet normal 1 0 0
    outer loop
      vertex 184.15 88.4 20
      vertex 184.15 20.6 1.10408
      vertex 184.15 88.4 1
    endloop
  endfacet
  facet normal 1 -0 0
    outer loop
      vertex 184.15 1.60001 20
      vertex 184.15 20.6 1.10408
      vertex 184.15 88.4 20
    endloop
  endfacet
  facet normal 1 -0 -0
    outer loop
      vertex 184.15 11.1 3.54552
      vertex 184.15 20.6 1.10408
      vertex 184.15 1.60001 20
    endloop
  endfacet
  facet normal 1 0 0
    outer loop
      vertex 184.15 20.6 1.10408
      vertex 184.15 14.7287 1.92992
      vertex 184.15 18.6139 1.10408
    endloop
  endfacet
  facet normal 1 0 0
    outer loop
      vertex 184.15 20.6 1.10408
      vertex 184.15 11.1 3.54552
      vertex 184.15 14.7287 1.92992
    endloop
  endfacet
  facet normal 1 0 0
    outer loop
      vertex 184.15 11.1 3.54552
      vertex 184.15 1.60001 20
      vertex 184.15 7.88651 5.88023
    endloop
  endfacet
  facet normal 1 0 0
    outer loop
      vertex 184.15 7.88651 5.88023
      vertex 184.15 1.60001 20
      vertex 184.15 5.22866 8.83208
    endloop
  endfacet
  facet normal 1 0 0
    outer loop
      vertex 184.15 5.22866 8.83208
      vertex 184.15 1.60001 20
      vertex 184.15 3.24262 12.272
    endloop
  endfacet
  facet normal 1 0 0
    outer loop
      vertex 184.15 3.24262 12.272
      vertex 184.15 1.60001 20
      vertex 184.15 2.01519 16.0497
    endloop
  endfacet
  facet normal 1 0 0
    outer loop
      vertex 184.15 2.01519 16.0497
      vertex 184.15 1.60001 20
      vertex 184.15 1.60001 19.9999
    endloop
  endfacet
  facet normal 1 0 0
    outer loop
      vertex 184.15 88.4 1
      vertex 184.15 20.6 1.10408
      vertex 184.15 20.6 1
    endloop
  endfacet
  facet normal -0 0 1
    outer loop
      vertex 1.60001 20.6 1.10408
      vertex 60.85 18.6139 1.10408
      vertex 60.85 20.6 1.10408
    endloop
  endfacet
  facet normal 0 0 1
    outer loop
      vertex 60.85 18.6139 1.10408
      vertex 1.60001 20.6 1.10408
      vertex 1.60001 18.6139 1.10408
    endloop
  endfacet
  facet normal -0 0 1
    outer loop
      vertex 184.15 20.6 1.10408
      vertex 243.4 18.6139 1.10408
      vertex 243.4 20.6 1.10408
    endloop
  endfacet
  facet normal 0 0 1
    outer loop
      vertex 243.4 18.6139 1.10408
      vertex 184.15 20.6 1.10408
      vertex 184.15 18.6139 1.10408
    endloop
  endfacet
  facet normal -0 0 1
    outer loop
      vertex 62.45 20.6 1.10408
      vertex 121.7 18.6139 1.10408
      vertex 121.7 20.6 1.10408
    endloop
  endfacet
  facet normal 0 0 1
    outer loop
      vertex 121.7 18.6139 1.10408
      vertex 62.45 20.6 1.10408
      vertex 62.45 18.6139 1.10408
    endloop
  endfacet
  facet normal -0 0 1
    outer loop
      vertex 123.3 20.6 1.10408
      vertex 182.55 18.6139 1.10408
      vertex 182.55 20.6 1.10408
    endloop
  endfacet
  facet normal 0 0 1
    outer loop
      vertex 182.55 18.6139 1.10408
      vertex 123.3 20.6 1.10408
      vertex 123.3 18.6139 1.10408
    endloop
  endfacet
  facet normal -0 0.207915 0.978147
    outer loop
      vertex 1.60001 18.6139 1.10408
      vertex 60.85 14.7287 1.92992
      vertex 60.85 18.6139 1.10408
    endloop
  endfacet
  facet normal 0 0.207915 0.978147
    outer loop
      vertex 60.85 14.7287 1.92992
      vertex 1.60001 18.6139 1.10408
      vertex 1.60001 14.7287 1.92992
    endloop
  endfacet
  facet normal -0 0.207915 0.978147
    outer loop
      vertex 184.15 18.6139 1.10408
      vertex 243.4 14.7287 1.92992
      vertex 243.4 18.6139 1.10408
    endloop
  endfacet
  facet normal 0 0.207915 0.978147
    outer loop
      vertex 243.4 14.7287 1.92992
      vertex 184.15 18.6139 1.10408
      vertex 184.15 14.7287 1.92992
    endloop
  endfacet
  facet normal -0 0.207915 0.978147
    outer loop
      vertex 62.45 18.6139 1.10408
      vertex 121.7 14.7287 1.92992
      vertex 121.7 18.6139 1.10408
    endloop
  endfacet
  facet normal 0 0.207915 0.978147
    outer loop
      vertex 121.7 14.7287 1.92992
      vertex 62.45 18.6139 1.10408
      vertex 62.45 14.7287 1.92992
    endloop
  endfacet
  facet normal -0 0.207915 0.978147
    outer loop
      vertex 123.3 18.6139 1.10408
      vertex 182.55 14.7287 1.92992
      vertex 182.55 18.6139 1.10408
    endloop
  endfacet
  facet normal 0 0.207915 0.978147
    outer loop
      vertex 182.55 14.7287 1.92992
      vertex 123.3 18.6139 1.10408
      vertex 123.3 14.7287 1.92992
    endloop
  endfacet
  facet normal -0 0.406736 0.913546
    outer loop
      vertex 1.60001 14.7287 1.92992
      vertex 60.85 11.1 3.54552
      vertex 60.85 14.7287 1.92992
    endloop
  endfacet
  facet normal 0 0.406736 0.913546
    outer loop
      vertex 60.85 11.1 3.54552
      vertex 1.60001 14.7287 1.92992
      vertex 1.60001 11.1 3.54552
    endloop
  endfacet
  facet normal -0 0.406736 0.913546
    outer loop
      vertex 184.15 14.7287 1.92992
      vertex 243.4 11.1 3.54552
      vertex 243.4 14.7287 1.92992
    endloop
  endfacet
  facet normal 0 0.406736 0.913546
    outer loop
      vertex 243.4 11.1 3.54552
      vertex 184.15 14.7287 1.92992
      vertex 184.15 11.1 3.54552
    endloop
  endfacet
  facet normal -0 0.406736 0.913546
    outer loop
      vertex 62.45 14.7287 1.92992
      vertex 121.7 11.1 3.54552
      vertex 121.7 14.7287 1.92992
    endloop
  endfacet
  facet normal 0 0.406736 0.913546
    outer loop
      vertex 121.7 11.1 3.54552
      vertex 62.45 14.7287 1.92992
      vertex 62.45 11.1 3.54552
    endloop
  endfacet
  facet normal -0 0.406736 0.913546
    outer loop
      vertex 123.3 14.7287 1.92992
      vertex 182.55 11.1 3.54552
      vertex 182.55 14.7287 1.92992
    endloop
  endfacet
  facet normal 0 0.406736 0.913546
    outer loop
      vertex 182.55 11.1 3.54552
      vertex 123.3 14.7287 1.92992
      vertex 123.3 11.1 3.54552
    endloop
  endfacet
  facet normal -0 0.587781 0.80902
    outer loop
      vertex 1.60001 11.1 3.54552
      vertex 60.85 7.88651 5.88023
      vertex 60.85 11.1 3.54552
    endloop
  endfacet
  facet normal 0 0.587781 0.80902
    outer loop
      vertex 60.85 7.88651 5.88023
      vertex 1.60001 11.1 3.54552
      vertex 1.60001 7.88651 5.88023
    endloop
  endfacet
  facet normal -0 0.587781 0.80902
    outer loop
      vertex 184.15 11.1 3.54552
      vertex 243.4 7.88651 5.88023
      vertex 243.4 11.1 3.54552
    endloop
  endfacet
  facet normal 0 0.587781 0.80902
    outer loop
      vertex 243.4 7.88651 5.88023
      vertex 184.15 11.1 3.54552
      vertex 184.15 7.88651 5.88023
    endloop
  endfacet
  facet normal -0 0.587781 0.80902
    outer loop
      vertex 62.45 11.1 3.54552
      vertex 121.7 7.88651 5.88023
      vertex 121.7 11.1 3.54552
    endloop
  endfacet
  facet normal 0 0.587781 0.80902
    outer loop
      vertex 121.7 7.88651 5.88023
      vertex 62.45 11.1 3.54552
      vertex 62.45 7.88651 5.88023
    endloop
  endfacet
  facet normal -0 0.587781 0.80902
    outer loop
      vertex 123.3 11.1 3.54552
      vertex 182.55 7.88651 5.88023
      vertex 182.55 11.1 3.54552
    endloop
  endfacet
  facet normal 0 0.587781 0.80902
    outer loop
      vertex 182.55 7.88651 5.88023
      vertex 123.3 11.1 3.54552
      vertex 123.3 7.88651 5.88023
    endloop
  endfacet
  facet normal 0 0.743146 0.66913
    outer loop
      vertex 60.85 7.88651 5.88023
      vertex 1.60001 5.22866 8.83208
      vertex 60.85 5.22866 8.83208
    endloop
  endfacet
  facet normal 0 0.743146 0.66913
    outer loop
      vertex 1.60001 5.22866 8.83208
      vertex 60.85 7.88651 5.88023
      vertex 1.60001 7.88651 5.88023
    endloop
  endfacet
  facet normal 0 0.743146 0.66913
    outer loop
      vertex 243.4 7.88651 5.88023
      vertex 184.15 5.22866 8.83208
      vertex 243.4 5.22866 8.83208
    endloop
  endfacet
  facet normal 0 0.743146 0.66913
    outer loop
      vertex 184.15 5.22866 8.83208
      vertex 243.4 7.88651 5.88023
      vertex 184.15 7.88651 5.88023
    endloop
  endfacet
  facet normal 0 0.743146 0.66913
    outer loop
      vertex 121.7 7.88651 5.88023
      vertex 62.45 5.22866 8.83208
      vertex 121.7 5.22866 8.83208
    endloop
  endfacet
  facet normal 0 0.743146 0.66913
    outer loop
      vertex 62.45 5.22866 8.83208
      vertex 121.7 7.88651 5.88023
      vertex 62.45 7.88651 5.88023
    endloop
  endfacet
  facet normal 0 0.743146 0.66913
    outer loop
      vertex 182.55 7.88651 5.88023
      vertex 123.3 5.22866 8.83208
      vertex 182.55 5.22866 8.83208
    endloop
  endfacet
  facet normal 0 0.743146 0.66913
    outer loop
      vertex 123.3 5.22866 8.83208
      vertex 182.55 7.88651 5.88023
      vertex 123.3 7.88651 5.88023
    endloop
  endfacet
  facet normal 0 0.866025 0.5
    outer loop
      vertex 60.85 5.22866 8.83208
      vertex 1.60001 3.24262 12.272
      vertex 60.85 3.24262 12.272
    endloop
  endfacet
  facet normal 0 0.866025 0.5
    outer loop
      vertex 1.60001 3.24262 12.272
      vertex 60.85 5.22866 8.83208
      vertex 1.60001 5.22866 8.83208
    endloop
  endfacet
  facet normal 0 0.866025 0.5
    outer loop
      vertex 243.4 5.22866 8.83208
      vertex 184.15 3.24262 12.272
      vertex 243.4 3.24262 12.272
    endloop
  endfacet
  facet normal 0 0.866025 0.5
    outer loop
      vertex 184.15 3.24262 12.272
      vertex 243.4 5.22866 8.83208
      vertex 184.15 5.22866 8.83208
    endloop
  endfacet
  facet normal 0 0.866025 0.5
    outer loop
      vertex 121.7 5.22866 8.83208
      vertex 62.45 3.24262 12.272
      vertex 121.7 3.24262 12.272
    endloop
  endfacet
  facet normal 0 0.866025 0.5
    outer loop
      vertex 62.45 3.24262 12.272
      vertex 121.7 5.22866 8.83208
      vertex 62.45 5.22866 8.83208
    endloop
  endfacet
  facet normal 0 0.866025 0.5
    outer loop
      vertex 182.55 5.22866 8.83208
      vertex 123.3 3.24262 12.272
      vertex 182.55 3.24262 12.272
    endloop
  endfacet
  facet normal 0 0.866025 0.5
    outer loop
      vertex 123.3 3.24262 12.272
      vertex 182.55 5.22866 8.83208
      vertex 123.3 5.22866 8.83208
    endloop
  endfacet
  facet normal 0 0.951058 0.309013
    outer loop
      vertex 60.85 3.24262 12.272
      vertex 1.60001 2.01519 16.0497
      vertex 60.85 2.01519 16.0497
    endloop
  endfacet
  facet normal 0 0.951058 0.309013
    outer loop
      vertex 1.60001 2.01519 16.0497
      vertex 60.85 3.24262 12.272
      vertex 1.60001 3.24262 12.272
    endloop
  endfacet
  facet normal 0 0.951058 0.309013
    outer loop
      vertex 243.4 3.24262 12.272
      vertex 184.15 2.01519 16.0497
      vertex 243.4 2.01519 16.0497
    endloop
  endfacet
  facet normal 0 0.951058 0.309013
    outer loop
      vertex 184.15 2.01519 16.0497
      vertex 243.4 3.24262 12.272
      vertex 184.15 3.24262 12.272
    endloop
  endfacet
  facet normal 0 0.951058 0.309013
    outer loop
      vertex 121.7 3.24262 12.272
      vertex 62.45 2.01519 16.0497
      vertex 121.7 2.01519 16.0497
    endloop
  endfacet
  facet normal 0 0.951058 0.309013
    outer loop
      vertex 62.45 2.01519 16.0497
      vertex 121.7 3.24262 12.272
      vertex 62.45 3.24262 12.272
    endloop
  endfacet
  facet normal 0 0.951058 0.309013
    outer loop
      vertex 182.55 3.24262 12.272
      vertex 123.3 2.01519 16.0497
      vertex 182.55 2.01519 16.0497
    endloop
  endfacet
  facet normal 0 0.951058 0.309013
    outer loop
      vertex 123.3 2.01519 16.0497
      vertex 182.55 3.24262 12.272
      vertex 123.3 3.24262 12.272
    endloop
  endfacet
  facet normal 0 0.994522 0.104528
    outer loop
      vertex 60.85 2.01519 16.0497
      vertex 1.60001 1.60001 19.9999
      vertex 60.85 1.60001 19.9999
    endloop
  endfacet
  facet normal 0 0.994522 0.104528
    outer loop
      vertex 1.60001 1.60001 19.9999
      vertex 60.85 2.01519 16.0497
      vertex 1.60001 2.01519 16.0497
    endloop
  endfacet
  facet normal 0 0.994522 0.104528
    outer loop
      vertex 243.4 2.01519 16.0497
      vertex 184.15 1.60001 19.9999
      vertex 243.4 1.60001 19.9999
    endloop
  endfacet
  facet normal 0 0.994522 0.104528
    outer loop
      vertex 184.15 1.60001 19.9999
      vertex 243.4 2.01519 16.0497
      vertex 184.15 2.01519 16.0497
    endloop
  endfacet
  facet normal 0 0.994522 0.104528
    outer loop
      vertex 121.7 2.01519 16.0497
      vertex 62.45 1.60001 19.9999
      vertex 121.7 1.60001 19.9999
    endloop
  endfacet
  facet normal 0 0.994522 0.104528
    outer loop
      vertex 62.45 1.60001 19.9999
      vertex 121.7 2.01519 16.0497
      vertex 62.45 2.01519 16.0497
    endloop
  endfacet
  facet normal 0 0.994522 0.104528
    outer loop
      vertex 182.55 2.01519 16.0497
      vertex 123.3 1.60001 19.9999
      vertex 182.55 1.60001 19.9999
    endloop
  endfacet
  facet normal 0 0.994522 0.104528
    outer loop
      vertex 123.3 1.60001 19.9999
      vertex 182.55 2.01519 16.0497
      vertex 123.3 2.01519 16.0497
    endloop
  endfacet
  facet normal 0 1 -0
    outer loop
      vertex 60.85 20.6 1
      vertex 1.60001 20.6 1.10408
      vertex 60.85 20.6 1.10408
    endloop
  endfacet
  facet normal 0 1 0
    outer loop
      vertex 1.60001 20.6 1.10408
      vertex 60.85 20.6 1
      vertex 1.60001 20.6 1
    endloop
  endfacet
  facet normal 0 1 -0
    outer loop
      vertex 243.4 20.6 1
      vertex 184.15 20.6 1.10408
      vertex 243.4 20.6 1.10408
    endloop
  endfacet
  facet normal 0 1 0
    outer loop
      vertex 184.15 20.6 1.10408
      vertex 243.4 20.6 1
      vertex 184.15 20.6 1
    endloop
  endfacet
  facet normal 0 1 -0
    outer loop
      vertex 121.7 20.6 1
      vertex 62.45 20.6 1.10408
      vertex 121.7 20.6 1.10408
    endloop
  endfacet
  facet normal 0 1 0
    outer loop
      vertex 62.45 20.6 1.10408
      vertex 121.7 20.6 1
      vertex 62.45 20.6 1
    endloop
  endfacet
  facet normal 0 1 -0
    outer loop
      vertex 182.55 20.6 1
      vertex 123.3 20.6 1.10408
      vertex 182.55 20.6 1.10408
    endloop
  endfacet
  facet normal 0 1 0
    outer loop
      vertex 123.3 20.6 1.10408
      vertex 182.55 20.6 1
      vertex 123.3 20.6 1
    endloop
  endfacet
endsolid OpenSCAD_Model
