solid OpenSCAD_Model
  facet normal 0 0 -1
    outer loop
      vertex 1.6 0 0
      vertex 0 0 0
      vertex 1.6 8.4 0
    endloop
  endfacet
  facet normal 0 0 -1
    outer loop
      vertex 62.45 0 0
      vertex 60.85 0 0
      vertex 62.45 8.4 0
    endloop
  endfacet
  facet normal 0 0 -1
    outer loop
      vertex 123.3 0 0
      vertex 121.7 0 0
      vertex 123.3 8.4 0
    endloop
  endfacet
  facet normal 0 0 -1
    outer loop
      vertex 184.15 0 0
      vertex 182.55 0 0
      vertex 184.15 8.4 0
    endloop
  endfacet
  facet normal 0 0 -1
    outer loop
      vertex 243.4 8.4 0
      vertex 245 0 0
      vertex 243.4 0 0
    endloop
  endfacet
  facet normal 0 0 -1
    outer loop
      vertex 245 0 0
      vertex 243.4 8.4 0
      vertex 245 90 0
    endloop
  endfacet
  facet normal 0 0 -1
    outer loop
      vertex 184.15 8.4 0
      vertex 245 90 0
      vertex 243.4 8.4 0
    endloop
  endfacet
  facet normal 0 0 -1
    outer loop
      vertex 182.55 8.4 0
      vertex 184.15 8.4 0
      vertex 182.55 0 0
    endloop
  endfacet
  facet normal 0 0 -1
    outer loop
      vertex 182.55 8.4 0
      vertex 245 90 0
      vertex 184.15 8.4 0
    endloop
  endfacet
  facet normal 0 0 -1
    outer loop
      vertex 123.3 8.4 0
      vertex 245 90 0
      vertex 182.55 8.4 0
    endloop
  endfacet
  facet normal 0 0 -1
    outer loop
      vertex 121.7 8.4 0
      vertex 123.3 8.4 0
      vertex 121.7 0 0
    endloop
  endfacet
  facet normal 0 0 -1
    outer loop
      vertex 121.7 8.4 0
      vertex 245 90 0
      vertex 123.3 8.4 0
    endloop
  endfacet
  facet normal 0 0 -1
    outer loop
      vertex 0 90 0
      vertex 121.7 8.4 0
      vertex 62.45 8.4 0
    endloop
  endfacet
  facet normal 0 0 -1
    outer loop
      vertex 60.85 8.4 0
      vertex 62.45 8.4 0
      vertex 60.85 0 0
    endloop
  endfacet
  facet normal 0 0 -1
    outer loop
      vertex 0 90 0
      vertex 62.45 8.4 0
      vertex 60.85 8.4 0
    endloop
  endfacet
  facet normal 0 0 -1
    outer loop
      vertex 0 90 0
      vertex 60.85 8.4 0
      vertex 1.6 8.4 0
    endloop
  endfacet
  facet normal 0 0 -1
    outer loop
      vertex 121.7 8.4 0
      vertex 0 90 0
      vertex 245 90 0
    endloop
  endfacet
  facet normal 0 0 -1
    outer loop
      vertex 0 90 0
      vertex 1.6 8.4 0
      vertex 0 0 0
    endloop
  endfacet
  facet normal -1 0 0
    outer loop
      vertex 0 0 0
      vertex 0 90 20
      vertex 0 90 0
    endloop
  endfacet
  facet normal -1 -0 0
    outer loop
      vertex 0 90 20
      vertex 0 0 0
      vertex 0 0 20
    endloop
  endfacet
  facet normal -0 0 1
    outer loop
      vertex 184.15 88.3 1
      vertex 243.4 10 1
      vertex 243.4 88.4 1
    endloop
  endfacet
  facet normal 0 0 1
    outer loop
      vertex 184.15 9 1
      vertex 243.4 10 1
      vertex 184.15 88.3 1
    endloop
  endfacet
  facet normal 0 0 1
    outer loop
      vertex 243.4 88.4 1
      vertex 182.55 88.3 1
      vertex 184.15 88.3 1
    endloop
  endfacet
  facet normal 0 0 1
    outer loop
      vertex 182.55 88.3 1
      vertex 123.3 88.3 1
      vertex 182.55 9 1
    endloop
  endfacet
  facet normal 0 0 1
    outer loop
      vertex 243.4 88.4 1
      vertex 123.3 88.3 1
      vertex 182.55 88.3 1
    endloop
  endfacet
  facet normal 0 0 1
    outer loop
      vertex 243.4 88.4 1
      vertex 121.7 88.3 1
      vertex 123.3 88.3 1
    endloop
  endfacet
  facet normal 0 0 1
    outer loop
      vertex 121.7 88.3 1
      vertex 62.45 88.3 1
      vertex 121.7 9 1
    endloop
  endfacet
  facet normal 0 0 1
    outer loop
      vertex 243.4 88.4 1
      vertex 62.45 88.3 1
      vertex 121.7 88.3 1
    endloop
  endfacet
  facet normal 0 0 1
    outer loop
      vertex 243.4 88.4 1
      vertex 60.85 88.3 1
      vertex 62.45 88.3 1
    endloop
  endfacet
  facet normal -0 0 1
    outer loop
      vertex 1.7 88.4 1
      vertex 60.85 88.3 1
      vertex 243.4 88.4 1
    endloop
  endfacet
  facet normal 0 0 1
    outer loop
      vertex 1.7 10 1
      vertex 60.85 88.3 1
      vertex 1.7 88.4 1
    endloop
  endfacet
  facet normal 0 0 1
    outer loop
      vertex 60.85 88.3 1
      vertex 1.7 10 1
      vertex 60.85 9 1
    endloop
  endfacet
  facet normal 0 0 1
    outer loop
      vertex 1.6 9 1
      vertex 1.7 10 1
      vertex 1.6 10 1
    endloop
  endfacet
  facet normal 0 0 1
    outer loop
      vertex 1.7 10 1
      vertex 1.6 9 1
      vertex 60.85 9 1
    endloop
  endfacet
  facet normal 0 0 1
    outer loop
      vertex 243.4 10 1
      vertex 184.15 9 1
      vertex 243.4 9 1
    endloop
  endfacet
  facet normal 0 0 1
    outer loop
      vertex 182.55 9 1
      vertex 123.3 88.3 1
      vertex 123.3 9 1
    endloop
  endfacet
  facet normal 0 0 1
    outer loop
      vertex 121.7 9 1
      vertex 62.45 88.3 1
      vertex 62.45 9 1
    endloop
  endfacet
  facet normal -0 0 1
    outer loop
      vertex 1.6 90 1
      vertex 1.7 88.4 1
      vertex 1.7 90 1
    endloop
  endfacet
  facet normal 0 0 1
    outer loop
      vertex 1.6 10 1
      vertex 1.7 88.4 1
      vertex 1.6 90 1
    endloop
  endfacet
  facet normal 0 0 1
    outer loop
      vertex 1.7 88.4 1
      vertex 1.6 10 1
      vertex 1.7 10 1
    endloop
  endfacet
  facet normal 0 1 0
    outer loop
      vertex 245 90 20
      vertex 1.7 90 19
      vertex 0 90 20
    endloop
  endfacet
  facet normal 0 1 0
    outer loop
      vertex 245 90 20
      vertex 1.7 90 1
      vertex 1.7 90 19
    endloop
  endfacet
  facet normal 0 1 0
    outer loop
      vertex 0 90 0
      vertex 1.7 90 1
      vertex 245 90 0
    endloop
  endfacet
  facet normal 0 1 -0
    outer loop
      vertex 245 90 0
      vertex 1.7 90 1
      vertex 245 90 20
    endloop
  endfacet
  facet normal 0 1 -0
    outer loop
      vertex 1.6 90 19
      vertex 0 90 20
      vertex 1.7 90 19
    endloop
  endfacet
  facet normal 0 1 -0
    outer loop
      vertex 1.6 90 1
      vertex 0 90 20
      vertex 1.6 90 19
    endloop
  endfacet
  facet normal 0 1 0
    outer loop
      vertex 1.6 90 1
      vertex 0 90 0
      vertex 0 90 20
    endloop
  endfacet
  facet normal 0 1 0
    outer loop
      vertex 1.7 90 1
      vertex 0 90 0
      vertex 1.6 90 1
    endloop
  endfacet
  facet normal 1 -0 0
    outer loop
      vertex 245 0 20
      vertex 245 90 0
      vertex 245 90 20
    endloop
  endfacet
  facet normal 1 0 0
    outer loop
      vertex 245 90 0
      vertex 245 0 20
      vertex 245 0 0
    endloop
  endfacet
  facet normal 0 -1 0
    outer loop
      vertex 182.55 0 0
      vertex 184.15 0 8.4
      vertex 182.55 0 8.4
    endloop
  endfacet
  facet normal 0 -1 -0
    outer loop
      vertex 184.15 0 8.4
      vertex 182.55 0 0
      vertex 184.15 0 0
    endloop
  endfacet
  facet normal 0 -1 0
    outer loop
      vertex 121.7 0 0
      vertex 123.3 0 8.4
      vertex 121.7 0 8.4
    endloop
  endfacet
  facet normal 0 -1 -0
    outer loop
      vertex 123.3 0 8.4
      vertex 121.7 0 0
      vertex 123.3 0 0
    endloop
  endfacet
  facet normal 0 -1 0
    outer loop
      vertex 60.85 0 0
      vertex 62.45 0 8.4
      vertex 60.85 0 8.4
    endloop
  endfacet
  facet normal 0 -1 -0
    outer loop
      vertex 62.45 0 8.4
      vertex 60.85 0 0
      vertex 62.45 0 0
    endloop
  endfacet
  facet normal 0 -1 0
    outer loop
      vertex 0 0 20
      vertex 1.6 0 19
      vertex 1.6 0 20
    endloop
  endfacet
  facet normal 0 -1 0
    outer loop
      vertex 1.6 0 19
      vertex 1.6 0 8.4
      vertex 1.7 0 19
    endloop
  endfacet
  facet normal 0 -1 0
    outer loop
      vertex 0 0 20
      vertex 1.6 0 8.4
      vertex 1.6 0 19
    endloop
  endfacet
  facet normal 0 -1 0
    outer loop
      vertex 0 0 0
      vertex 1.6 0 8.4
      vertex 0 0 20
    endloop
  endfacet
  facet normal 0 -1 -0
    outer loop
      vertex 1.6 0 8.4
      vertex 0 0 0
      vertex 1.6 0 0
    endloop
  endfacet
  facet normal 0 -1 0
    outer loop
      vertex 60.85 0 8.4
      vertex 1.7 0 20
      vertex 1.7 0 19
    endloop
  endfacet
  facet normal 0 -1 0
    outer loop
      vertex 60.85 0 8.4
      vertex 1.7 0 19
      vertex 1.6 0 8.4
    endloop
  endfacet
  facet normal 0 -1 0
    outer loop
      vertex 1.7 0 20
      vertex 60.85 0 8.4
      vertex 62.45 0 8.4
    endloop
  endfacet
  facet normal 0 -1 0
    outer loop
      vertex 1.7 0 20
      vertex 62.45 0 8.4
      vertex 121.7 0 8.4
    endloop
  endfacet
  facet normal 0 -1 0
    outer loop
      vertex 1.7 0 20
      vertex 121.7 0 8.4
      vertex 245 0 20
    endloop
  endfacet
  facet normal 0 -1 0
    outer loop
      vertex 123.3 0 8.4
      vertex 245 0 20
      vertex 121.7 0 8.4
    endloop
  endfacet
  facet normal 0 -1 0
    outer loop
      vertex 182.55 0 8.4
      vertex 245 0 20
      vertex 123.3 0 8.4
    endloop
  endfacet
  facet normal 0 -1 0
    outer loop
      vertex 184.15 0 8.4
      vertex 245 0 20
      vertex 182.55 0 8.4
    endloop
  endfacet
  facet normal 0 -1 0
    outer loop
      vertex 243.4 0 8.4
      vertex 245 0 20
      vertex 184.15 0 8.4
    endloop
  endfacet
  facet normal 0 -1 0
    outer loop
      vertex 245 0 0
      vertex 243.4 0 8.4
      vertex 243.4 0 0
    endloop
  endfacet
  facet normal 0 -1 0
    outer loop
      vertex 243.4 0 8.4
      vertex 245 0 0
      vertex 245 0 20
    endloop
  endfacet
  facet normal -0 0 1
    outer loop
      vertex 1.60001 1.60001 20
      vertex 1.7 1.6 20
      vertex 60.85 1.60001 20
    endloop
  endfacet
  facet normal 0 0 1
    outer loop
      vertex 1.7 1.6 20
      vertex 1.60001 1.60001 20
      vertex 1.6 1.6 20
    endloop
  endfacet
  facet normal 0 0 1
    outer loop
      vertex 62.45 88.3 20
      vertex 60.85 88.3 20
      vertex 62.45 1.60001 20
    endloop
  endfacet
  facet normal 0 0 1
    outer loop
      vertex 123.3 88.3 20
      vertex 121.7 88.3 20
      vertex 123.3 1.60001 20
    endloop
  endfacet
  facet normal 0 0 1
    outer loop
      vertex 184.15 88.3 20
      vertex 182.55 88.3 20
      vertex 184.15 1.60001 20
    endloop
  endfacet
  facet normal 0 0 1
    outer loop
      vertex 245 90 20
      vertex 243.4 88.4 20
      vertex 245 0 20
    endloop
  endfacet
  facet normal 0 0 1
    outer loop
      vertex 245 90 20
      vertex 1.60001 88.4 20
      vertex 243.4 88.4 20
    endloop
  endfacet
  facet normal 0 0 1
    outer loop
      vertex 1.60001 88.4 20
      vertex 1.6 1.6 20
      vertex 1.60001 1.60001 20
    endloop
  endfacet
  facet normal -0 0 1
    outer loop
      vertex 0 90 20
      vertex 1.60001 88.4 20
      vertex 245 90 20
    endloop
  endfacet
  facet normal 0 0 1
    outer loop
      vertex 0 90 20
      vertex 1.6 1.6 20
      vertex 1.60001 88.4 20
    endloop
  endfacet
  facet normal 0 0 1
    outer loop
      vertex 0 0 20
      vertex 1.6 1.6 20
      vertex 0 90 20
    endloop
  endfacet
  facet normal 0 0 1
    outer loop
      vertex 1.6 1.6 20
      vertex 0 0 20
      vertex 1.6 0 20
    endloop
  endfacet
  facet normal -0 0 1
    outer loop
      vertex 243.4 1.60001 20
      vertex 245 0 20
      vertex 243.4 88.4 20
    endloop
  endfacet
  facet normal -0 0 1
    outer loop
      vertex 184.15 1.60001 20
      vertex 245 0 20
      vertex 243.4 1.60001 20
    endloop
  endfacet
  facet normal 0 0 1
    outer loop
      vertex 182.55 1.60001 20
      vertex 184.15 1.60001 20
      vertex 182.55 88.3 20
    endloop
  endfacet
  facet normal -0 0 1
    outer loop
      vertex 182.55 1.60001 20
      vertex 245 0 20
      vertex 184.15 1.60001 20
    endloop
  endfacet
  facet normal -0 0 1
    outer loop
      vertex 123.3 1.60001 20
      vertex 245 0 20
      vertex 182.55 1.60001 20
    endloop
  endfacet
  facet normal 0 0 1
    outer loop
      vertex 121.7 1.60001 20
      vertex 123.3 1.60001 20
      vertex 121.7 88.3 20
    endloop
  endfacet
  facet normal -0 0 1
    outer loop
      vertex 121.7 1.60001 20
      vertex 245 0 20
      vertex 123.3 1.60001 20
    endloop
  endfacet
  facet normal 0 0 1
    outer loop
      vertex 1.7 0 20
      vertex 121.7 1.60001 20
      vertex 62.45 1.60001 20
    endloop
  endfacet
  facet normal 0 0 1
    outer loop
      vertex 60.85 1.60001 20
      vertex 62.45 1.60001 20
      vertex 60.85 88.3 20
    endloop
  endfacet
  facet normal 0 0 1
    outer loop
      vertex 1.7 0 20
      vertex 62.45 1.60001 20
      vertex 60.85 1.60001 20
    endloop
  endfacet
  facet normal 0 0 1
    outer loop
      vertex 1.7 0 20
      vertex 60.85 1.60001 20
      vertex 1.7 1.6 20
    endloop
  endfacet
  facet normal 0 0 1
    outer loop
      vertex 121.7 1.60001 20
      vertex 1.7 0 20
      vertex 245 0 20
    endloop
  endfacet
  facet normal 1 -0 0
    outer loop
      vertex 1.60001 1.60001 20
      vertex 1.60001 88.4 19
      vertex 1.60001 88.4 20
    endloop
  endfacet
  facet normal 1 0 0
    outer loop
      vertex 1.60001 88.4 19
      vertex 1.60001 1.60001 20
      vertex 1.60001 1.60001 19
    endloop
  endfacet
  facet normal 0 -1 0
    outer loop
      vertex 123.3 88.4 8.4
      vertex 182.55 88.4 19
      vertex 123.3 88.4 19
    endloop
  endfacet
  facet normal 0 -1 -0
    outer loop
      vertex 182.55 88.4 19
      vertex 123.3 88.4 8.4
      vertex 182.55 88.4 8.4
    endloop
  endfacet
  facet normal 0 -1 0
    outer loop
      vertex 62.45 88.4 8.4
      vertex 121.7 88.4 19
      vertex 62.45 88.4 19
    endloop
  endfacet
  facet normal 0 -1 -0
    outer loop
      vertex 121.7 88.4 19
      vertex 62.45 88.4 8.4
      vertex 121.7 88.4 8.4
    endloop
  endfacet
  facet normal 0 -1 0
    outer loop
      vertex 1.7 88.4 19
      vertex 60.85 88.4 8.4
      vertex 60.85 88.4 19
    endloop
  endfacet
  facet normal 0 -1 0
    outer loop
      vertex 1.7 88.4 1
      vertex 62.45 88.4 8.4
      vertex 60.85 88.4 8.4
    endloop
  endfacet
  facet normal 0 -1 -0
    outer loop
      vertex 62.45 88.4 8.4
      vertex 1.7 88.4 1
      vertex 121.7 88.4 8.4
    endloop
  endfacet
  facet normal 0 -1 -0
    outer loop
      vertex 121.7 88.4 8.4
      vertex 1.7 88.4 1
      vertex 123.3 88.4 8.4
    endloop
  endfacet
  facet normal 0 -1 0
    outer loop
      vertex 243.4 88.4 1
      vertex 123.3 88.4 8.4
      vertex 1.7 88.4 1
    endloop
  endfacet
  facet normal 0 -1 0
    outer loop
      vertex 123.3 88.4 8.4
      vertex 243.4 88.4 1
      vertex 182.55 88.4 8.4
    endloop
  endfacet
  facet normal 0 -1 0
    outer loop
      vertex 1.7 88.4 1
      vertex 60.85 88.4 8.4
      vertex 1.7 88.4 19
    endloop
  endfacet
  facet normal 0 -1 0
    outer loop
      vertex 1.7 88.4 19
      vertex 1.60001 88.4 20
      vertex 1.60001 88.4 19
    endloop
  endfacet
  facet normal 0 -1 0
    outer loop
      vertex 60.85 88.4 19
      vertex 1.60001 88.4 20
      vertex 1.7 88.4 19
    endloop
  endfacet
  facet normal 0 -1 0
    outer loop
      vertex 62.45 88.4 19
      vertex 1.60001 88.4 20
      vertex 60.85 88.4 19
    endloop
  endfacet
  facet normal 0 -1 0
    outer loop
      vertex 1.60001 88.4 20
      vertex 62.45 88.4 19
      vertex 243.4 88.4 20
    endloop
  endfacet
  facet normal 0 -1 0
    outer loop
      vertex 121.7 88.4 19
      vertex 243.4 88.4 20
      vertex 62.45 88.4 19
    endloop
  endfacet
  facet normal 0 -1 0
    outer loop
      vertex 123.3 88.4 19
      vertex 243.4 88.4 20
      vertex 121.7 88.4 19
    endloop
  endfacet
  facet normal 0 -1 0
    outer loop
      vertex 182.55 88.4 19
      vertex 243.4 88.4 20
      vertex 123.3 88.4 19
    endloop
  endfacet
  facet normal 0 -1 0
    outer loop
      vertex 184.15 88.4 19
      vertex 243.4 88.4 20
      vertex 182.55 88.4 19
    endloop
  endfacet
  facet normal 0 -1 0
    outer loop
      vertex 184.15 88.4 8.4
      vertex 243.4 88.4 20
      vertex 184.15 88.4 19
    endloop
  endfacet
  facet normal 0 -1 0
    outer loop
      vertex 184.15 88.4 8.4
      vertex 243.4 88.4 1
      vertex 243.4 88.4 20
    endloop
  endfacet
  facet normal 0 -1 0
    outer loop
      vertex 182.55 88.4 8.4
      vertex 243.4 88.4 1
      vertex 184.15 88.4 8.4
    endloop
  endfacet
  facet normal -1 0 0
    outer loop
      vertex 243.4 10 9
      vertex 243.4 88.4 1
      vertex 243.4 10 1
    endloop
  endfacet
  facet normal -1 0 0
    outer loop
      vertex 243.4 88.4 1
      vertex 243.4 10 9
      vertex 243.4 88.4 20
    endloop
  endfacet
  facet normal -1 0 0
    outer loop
      vertex 243.4 1.60001 20
      vertex 243.4 10 9
      vertex 243.4 1.60001 9
    endloop
  endfacet
  facet normal -1 0 0
    outer loop
      vertex 243.4 10 9
      vertex 243.4 1.60001 20
      vertex 243.4 88.4 20
    endloop
  endfacet
  facet normal 0 1 0
    outer loop
      vertex 243.4 1.60001 20
      vertex 184.15 1.60001 19
      vertex 184.15 1.60001 20
    endloop
  endfacet
  facet normal 0 1 0
    outer loop
      vertex 243.4 1.60001 9
      vertex 182.55 1.60001 19
      vertex 184.15 1.60001 19
    endloop
  endfacet
  facet normal 0 1 0
    outer loop
      vertex 182.55 1.60001 19
      vertex 243.4 1.60001 9
      vertex 123.3 1.60001 19
    endloop
  endfacet
  facet normal 0 1 0
    outer loop
      vertex 123.3 1.60001 19
      vertex 243.4 1.60001 9
      vertex 121.7 1.60001 19
    endloop
  endfacet
  facet normal 0 1 0
    outer loop
      vertex 121.7 1.60001 19
      vertex 1.7 1.60001 9
      vertex 62.45 1.60001 19
    endloop
  endfacet
  facet normal 0 1 0
    outer loop
      vertex 62.45 1.60001 19
      vertex 1.7 1.60001 9
      vertex 60.85 1.60001 19
    endloop
  endfacet
  facet normal 0 1 -0
    outer loop
      vertex 243.4 1.60001 9
      vertex 184.15 1.60001 19
      vertex 243.4 1.60001 20
    endloop
  endfacet
  facet normal 0 1 0
    outer loop
      vertex 121.7 1.60001 19
      vertex 243.4 1.60001 9
      vertex 1.7 1.60001 9
    endloop
  endfacet
  facet normal 0 1 0
    outer loop
      vertex 60.85 1.60001 19
      vertex 1.7 1.60001 9
      vertex 1.7 1.60001 19
    endloop
  endfacet
  facet normal 0 1 -0
    outer loop
      vertex 182.55 1.60001 19
      vertex 123.3 1.60001 20
      vertex 182.55 1.60001 20
    endloop
  endfacet
  facet normal 0 1 0
    outer loop
      vertex 123.3 1.60001 20
      vertex 182.55 1.60001 19
      vertex 123.3 1.60001 19
    endloop
  endfacet
  facet normal 0 1 -0
    outer loop
      vertex 121.7 1.60001 19
      vertex 62.45 1.60001 20
      vertex 121.7 1.60001 20
    endloop
  endfacet
  facet normal 0 1 0
    outer loop
      vertex 62.45 1.60001 20
      vertex 121.7 1.60001 19
      vertex 62.45 1.60001 19
    endloop
  endfacet
  facet normal 0 1 0
    outer loop
      vertex 1.7 1.60001 19
      vertex 60.85 1.60001 20
      vertex 60.85 1.60001 19
    endloop
  endfacet
  facet normal 0 1 0
    outer loop
      vertex 60.85 1.60001 20
      vertex 1.7 1.60001 19
      vertex 1.60001 1.60001 20
    endloop
  endfacet
  facet normal 0 1 0
    outer loop
      vertex 1.60001 1.60001 20
      vertex 1.7 1.60001 19
      vertex 1.60001 1.60001 19
    endloop
  endfacet
  facet normal 1 0 0
    outer loop
      vertex 1.6 8.4 0
      vertex 1.6 0 8.4
      vertex 1.6 0 0
    endloop
  endfacet
  facet normal 1 0 0
    outer loop
      vertex 1.6 90 19
      vertex 1.6 10 1
      vertex 1.6 90 1
    endloop
  endfacet
  facet normal 1 -0 0
    outer loop
      vertex 1.6 1.6 19
      vertex 1.6 10 1
      vertex 1.6 90 19
    endloop
  endfacet
  facet normal 1 -0 0
    outer loop
      vertex 1.6 1.6 9
      vertex 1.6 10 1
      vertex 1.6 1.6 19
    endloop
  endfacet
  facet normal 1 0 0
    outer loop
      vertex 1.6 10 1
      vertex 1.6 1.6 9
      vertex 1.6 9 1
    endloop
  endfacet
  facet normal 1 0 0
    outer loop
      vertex 1.6 1.59999 8.40001
      vertex 1.6 1.6 9
      vertex 1.6 1.59999 9
    endloop
  endfacet
  facet normal 1 0 0
    outer loop
      vertex 1.6 1.6 9
      vertex 1.6 1.59999 8.40001
      vertex 1.6 9 1
    endloop
  endfacet
  facet normal 0 0 -1
    outer loop
      vertex 1.7 1.6 19
      vertex 1.60001 1.60001 19
      vertex 1.7 1.60001 19
    endloop
  endfacet
  facet normal -0 0 -1
    outer loop
      vertex 1.60001 1.60001 19
      vertex 1.6 1.6 19
      vertex 1.60001 88.4 19
    endloop
  endfacet
  facet normal 0 0 -1
    outer loop
      vertex 1.6 1.6 19
      vertex 1.60001 1.60001 19
      vertex 1.7 1.6 19
    endloop
  endfacet
  facet normal 0 0 -1
    outer loop
      vertex 1.60001 88.4 19
      vertex 1.7 90 19
      vertex 1.7 88.4 19
    endloop
  endfacet
  facet normal 0 0 -1
    outer loop
      vertex 1.60001 88.4 19
      vertex 1.6 90 19
      vertex 1.7 90 19
    endloop
  endfacet
  facet normal 0 0 -1
    outer loop
      vertex 1.6 90 19
      vertex 1.60001 88.4 19
      vertex 1.6 1.6 19
    endloop
  endfacet
  facet normal -1 0 0
    outer loop
      vertex 1.7 1.6 9
      vertex 1.7 1.60001 19
      vertex 1.7 1.60001 9
    endloop
  endfacet
  facet normal -1 -0 0
    outer loop
      vertex 1.7 1.60001 19
      vertex 1.7 1.6 9
      vertex 1.7 1.6 19
    endloop
  endfacet
  facet normal -1 0 0
    outer loop
      vertex 1.7 88.4 1
      vertex 1.7 90 19
      vertex 1.7 90 1
    endloop
  endfacet
  facet normal -1 -0 0
    outer loop
      vertex 1.7 90 19
      vertex 1.7 88.4 1
      vertex 1.7 88.4 19
    endloop
  endfacet
  facet normal 0 1 -0
    outer loop
      vertex 1.7 1.6 9
      vertex 1.6 1.6 19
      vertex 1.7 1.6 19
    endloop
  endfacet
  facet normal 0 1 0
    outer loop
      vertex 1.6 1.6 19
      vertex 1.7 1.6 9
      vertex 1.6 1.6 9
    endloop
  endfacet
  facet normal -0 0 1
    outer loop
      vertex 1.6 1.6 19
      vertex 1.7 0 19
      vertex 1.7 1.6 19
    endloop
  endfacet
  facet normal 0 0 1
    outer loop
      vertex 1.7 0 19
      vertex 1.6 1.6 19
      vertex 1.6 0 19
    endloop
  endfacet
  facet normal 1 -0 0
    outer loop
      vertex 1.6 0 20
      vertex 1.6 1.6 19
      vertex 1.6 1.6 20
    endloop
  endfacet
  facet normal 1 0 0
    outer loop
      vertex 1.6 1.6 19
      vertex 1.6 0 20
      vertex 1.6 0 19
    endloop
  endfacet
  facet normal 0 -1 0
    outer loop
      vertex 1.6 1.6 19
      vertex 1.7 1.6 20
      vertex 1.6 1.6 20
    endloop
  endfacet
  facet normal 0 -1 -0
    outer loop
      vertex 1.7 1.6 20
      vertex 1.6 1.6 19
      vertex 1.7 1.6 19
    endloop
  endfacet
  facet normal -1 0 0
    outer loop
      vertex 1.7 0 19
      vertex 1.7 1.6 20
      vertex 1.7 1.6 19
    endloop
  endfacet
  facet normal -1 -0 0
    outer loop
      vertex 1.7 1.6 20
      vertex 1.7 0 19
      vertex 1.7 0 20
    endloop
  endfacet
  facet normal 0 0 -1
    outer loop
      vertex 60.85 1.59999 9
      vertex 1.7 1.6 9
      vertex 60.85 1.6 9
    endloop
  endfacet
  facet normal 0 0 -1
    outer loop
      vertex 1.6 1.59999 9
      vertex 1.7 1.6 9
      vertex 60.85 1.59999 9
    endloop
  endfacet
  facet normal -0 0 -1
    outer loop
      vertex 1.7 1.6 9
      vertex 1.6 1.59999 9
      vertex 1.6 1.6 9
    endloop
  endfacet
  facet normal 0 0 -1
    outer loop
      vertex 121.7 1.59999 9
      vertex 62.45 1.59999 9
      vertex 121.7 1.6 9
    endloop
  endfacet
  facet normal 0 0 -1
    outer loop
      vertex 182.55 1.59999 9
      vertex 123.3 1.59999 9
      vertex 182.55 1.6 9
    endloop
  endfacet
  facet normal 0 0 -1
    outer loop
      vertex 184.15 1.59999 9
      vertex 243.4 1.60001 9
      vertex 243.4 1.59999 9
    endloop
  endfacet
  facet normal 0 0 -1
    outer loop
      vertex 184.15 1.6 9
      vertex 243.4 1.60001 9
      vertex 184.15 1.59999 9
    endloop
  endfacet
  facet normal 0 0 -1
    outer loop
      vertex 182.55 1.6 9
      vertex 243.4 1.60001 9
      vertex 184.15 1.6 9
    endloop
  endfacet
  facet normal 0 0 -1
    outer loop
      vertex 123.3 1.6 9
      vertex 182.55 1.6 9
      vertex 123.3 1.59999 9
    endloop
  endfacet
  facet normal 0 0 -1
    outer loop
      vertex 123.3 1.6 9
      vertex 243.4 1.60001 9
      vertex 182.55 1.6 9
    endloop
  endfacet
  facet normal 0 0 -1
    outer loop
      vertex 121.7 1.6 9
      vertex 243.4 1.60001 9
      vertex 123.3 1.6 9
    endloop
  endfacet
  facet normal 0 0 -1
    outer loop
      vertex 62.45 1.6 9
      vertex 121.7 1.6 9
      vertex 62.45 1.59999 9
    endloop
  endfacet
  facet normal 0 0 -1
    outer loop
      vertex 62.45 1.6 9
      vertex 243.4 1.60001 9
      vertex 121.7 1.6 9
    endloop
  endfacet
  facet normal 0 0 -1
    outer loop
      vertex 60.85 1.6 9
      vertex 243.4 1.60001 9
      vertex 62.45 1.6 9
    endloop
  endfacet
  facet normal 0 0 -1
    outer loop
      vertex 1.7 1.60001 9
      vertex 60.85 1.6 9
      vertex 1.7 1.6 9
    endloop
  endfacet
  facet normal 0 0 -1
    outer loop
      vertex 60.85 1.6 9
      vertex 1.7 1.60001 9
      vertex 243.4 1.60001 9
    endloop
  endfacet
  facet normal 0 0 -0
    outer loop
      vertex 243.4 1.60001 9
      vertex 243.4 10 9
      vertex 243.4 1.59999 9
    endloop
  endfacet
  facet normal -1 0 0
    outer loop
      vertex 243.4 9 1
      vertex 243.4 10 9
      vertex 243.4 10 1
    endloop
  endfacet
  facet normal -1 0 0
    outer loop
      vertex 243.4 1.59999 8.40001
      vertex 243.4 10 9
      vertex 243.4 9 1
    endloop
  endfacet
  facet normal -1 -0 0
    outer loop
      vertex 243.4 10 9
      vertex 243.4 1.59999 8.40001
      vertex 243.4 1.59999 9
    endloop
  endfacet
  facet normal -1 0 0
    outer loop
      vertex 243.4 0 8.4
      vertex 243.4 8.4 0
      vertex 243.4 0 0
    endloop
  endfacet
  facet normal 0 0.707107 0.707107
    outer loop
      vertex 121.7 9 1
      vertex 62.45 1.6 8.4
      vertex 121.7 1.6 8.4
    endloop
  endfacet
  facet normal 0 0.707107 0.707107
    outer loop
      vertex 62.45 1.6 8.4
      vertex 121.7 9 1
      vertex 62.45 9 1
    endloop
  endfacet
  facet normal 0 0.707107 0.707107
    outer loop
      vertex 182.55 9 1
      vertex 123.3 1.6 8.4
      vertex 182.55 1.6 8.4
    endloop
  endfacet
  facet normal 0 0.707107 0.707107
    outer loop
      vertex 123.3 1.6 8.4
      vertex 182.55 9 1
      vertex 123.3 9 1
    endloop
  endfacet
  facet normal 0 0.707107 0.707107
    outer loop
      vertex 243.4 1.59999 8.40001
      vertex 184.15 1.6 8.4
      vertex 184.15 1.59999 8.40001
    endloop
  endfacet
  facet normal 0 0.707107 0.707107
    outer loop
      vertex 243.4 9 1
      vertex 184.15 1.6 8.4
      vertex 243.4 1.59999 8.40001
    endloop
  endfacet
  facet normal 0 0.707107 0.707107
    outer loop
      vertex 184.15 1.6 8.4
      vertex 243.4 9 1
      vertex 184.15 9 1
    endloop
  endfacet
  facet normal 0 0.707107 0.707107
    outer loop
      vertex 182.55 1.6 8.4
      vertex 123.3 1.59999 8.40001
      vertex 182.55 1.59999 8.40001
    endloop
  endfacet
  facet normal 0 0.707107 0.707107
    outer loop
      vertex 123.3 1.59999 8.40001
      vertex 182.55 1.6 8.4
      vertex 123.3 1.6 8.4
    endloop
  endfacet
  facet normal 0 0.707107 0.707107
    outer loop
      vertex 121.7 1.6 8.4
      vertex 62.45 1.59999 8.40001
      vertex 121.7 1.59999 8.40001
    endloop
  endfacet
  facet normal 0 0.707107 0.707107
    outer loop
      vertex 62.45 1.59999 8.40001
      vertex 121.7 1.6 8.4
      vertex 62.45 1.6 8.4
    endloop
  endfacet
  facet normal 0 0.707107 0.707107
    outer loop
      vertex 60.85 1.6 8.4
      vertex 1.6 1.59999 8.40001
      vertex 60.85 1.59999 8.40001
    endloop
  endfacet
  facet normal 0 0.707107 0.707107
    outer loop
      vertex 60.85 9 1
      vertex 1.6 1.59999 8.40001
      vertex 60.85 1.6 8.4
    endloop
  endfacet
  facet normal 0 0.707107 0.707107
    outer loop
      vertex 1.6 1.59999 8.40001
      vertex 60.85 9 1
      vertex 1.6 9 1
    endloop
  endfacet
  facet normal 0 1 -0
    outer loop
      vertex 60.85 1.59999 8.40001
      vertex 1.6 1.59999 9
      vertex 60.85 1.59999 9
    endloop
  endfacet
  facet normal 0 1 0
    outer loop
      vertex 1.6 1.59999 9
      vertex 60.85 1.59999 8.40001
      vertex 1.6 1.59999 8.40001
    endloop
  endfacet
  facet normal 0 1 -0
    outer loop
      vertex 243.4 1.59999 8.40001
      vertex 184.15 1.59999 9
      vertex 243.4 1.59999 9
    endloop
  endfacet
  facet normal 0 1 0
    outer loop
      vertex 184.15 1.59999 9
      vertex 243.4 1.59999 8.40001
      vertex 184.15 1.59999 8.40001
    endloop
  endfacet
  facet normal 0 1 -0
    outer loop
      vertex 121.7 1.59999 8.40001
      vertex 62.45 1.59999 9
      vertex 121.7 1.59999 9
    endloop
  endfacet
  facet normal 0 1 0
    outer loop
      vertex 62.45 1.59999 9
      vertex 121.7 1.59999 8.40001
      vertex 62.45 1.59999 8.40001
    endloop
  endfacet
  facet normal 0 1 -0
    outer loop
      vertex 182.55 1.59999 8.40001
      vertex 123.3 1.59999 9
      vertex 182.55 1.59999 9
    endloop
  endfacet
  facet normal 0 1 0
    outer loop
      vertex 123.3 1.59999 9
      vertex 182.55 1.59999 8.40001
      vertex 123.3 1.59999 8.40001
    endloop
  endfacet
  facet normal 0 -0.707107 -0.707107
    outer loop
      vertex 1.6 8.4 0
      vertex 60.85 0 8.4
      vertex 1.6 0 8.4
    endloop
  endfacet
  facet normal 0 -0.707107 -0.707107
    outer loop
      vertex 60.85 0 8.4
      vertex 1.6 8.4 0
      vertex 60.85 8.4 0
    endloop
  endfacet
  facet normal 0 -0.707107 -0.707107
    outer loop
      vertex 184.15 8.4 0
      vertex 243.4 0 8.4
      vertex 184.15 0 8.4
    endloop
  endfacet
  facet normal 0 -0.707107 -0.707107
    outer loop
      vertex 243.4 0 8.4
      vertex 184.15 8.4 0
      vertex 243.4 8.4 0
    endloop
  endfacet
  facet normal 0 -0.707107 -0.707107
    outer loop
      vertex 62.45 8.4 0
      vertex 121.7 0 8.4
      vertex 62.45 0 8.4
    endloop
  endfacet
  facet normal 0 -0.707107 -0.707107
    outer loop
      vertex 121.7 0 8.4
      vertex 62.45 8.4 0
      vertex 121.7 8.4 0
    endloop
  endfacet
  facet normal 0 -0.707107 -0.707107
    outer loop
      vertex 123.3 8.4 0
      vertex 182.55 0 8.4
      vertex 123.3 0 8.4
    endloop
  endfacet
  facet normal 0 -0.707107 -0.707107
    outer loop
      vertex 182.55 0 8.4
      vertex 123.3 8.4 0
      vertex 182.55 8.4 0
    endloop
  endfacet
  facet normal -0 0 1
    outer loop
      vertex 60.85 1.7 8.4
      vertex 62.45 1.6 8.4
      vertex 62.45 1.7 8.4
    endloop
  endfacet
  facet normal 0 0 1
    outer loop
      vertex 62.45 1.6 8.4
      vertex 60.85 1.7 8.4
      vertex 60.85 1.6 8.4
    endloop
  endfacet
  facet normal -1 0 0
    outer loop
      vertex 60.85 8.4 0
      vertex 60.85 0 0
      vertex 60.85 0 8.4
    endloop
  endfacet
  facet normal -1 0 0
    outer loop
      vertex 60.85 9 1
      vertex 60.85 1.6 8.4
      vertex 60.85 1.7 8.4
    endloop
  endfacet
  facet normal -1 0 0
    outer loop
      vertex 60.85 9 1
      vertex 60.85 88.3 8.4
      vertex 60.85 88.3 1
    endloop
  endfacet
  facet normal -1 -0 0
    outer loop
      vertex 60.85 88.3 8.4
      vertex 60.85 9 1
      vertex 60.85 88.3 19
    endloop
  endfacet
  facet normal -1 -0 0
    outer loop
      vertex 60.85 88.3 19
      vertex 60.85 9 1
      vertex 60.85 88.3 20
    endloop
  endfacet
  facet normal -1 0 0
    outer loop
      vertex 60.85 1.7 19
      vertex 60.85 9 1
      vertex 60.85 1.7 8.4
    endloop
  endfacet
  facet normal -1 0 0
    outer loop
      vertex 60.85 1.60001 20
      vertex 60.85 9 1
      vertex 60.85 1.7 19
    endloop
  endfacet
  facet normal -1 0 0
    outer loop
      vertex 60.85 1.60001 20
      vertex 60.85 1.7 19
      vertex 60.85 1.60001 19
    endloop
  endfacet
  facet normal -1 0 0
    outer loop
      vertex 60.85 9 1
      vertex 60.85 1.60001 20
      vertex 60.85 88.3 20
    endloop
  endfacet
  facet normal -1 0 0
    outer loop
      vertex 60.85 88.3 8.4
      vertex 60.85 88.4 19
      vertex 60.85 88.4 8.4
    endloop
  endfacet
  facet normal -1 -0 0
    outer loop
      vertex 60.85 88.4 19
      vertex 60.85 88.3 8.4
      vertex 60.85 88.3 19
    endloop
  endfacet
  facet normal -1 0 0
    outer loop
      vertex 60.85 1.59999 8.40001
      vertex 60.85 1.6 9
      vertex 60.85 1.6 8.4
    endloop
  endfacet
  facet normal -1 -0 0
    outer loop
      vertex 60.85 1.6 9
      vertex 60.85 1.59999 8.40001
      vertex 60.85 1.59999 9
    endloop
  endfacet
  facet normal 0 0 -1
    outer loop
      vertex 60.85 1.60001 19
      vertex 62.45 1.7 19
      vertex 62.45 1.60001 19
    endloop
  endfacet
  facet normal -0 0 -1
    outer loop
      vertex 62.45 1.7 19
      vertex 60.85 1.60001 19
      vertex 60.85 1.7 19
    endloop
  endfacet
  facet normal 0 -1 0
    outer loop
      vertex 60.85 1.7 8.4
      vertex 62.45 1.7 19
      vertex 60.85 1.7 19
    endloop
  endfacet
  facet normal 0 -1 -0
    outer loop
      vertex 62.45 1.7 19
      vertex 60.85 1.7 8.4
      vertex 62.45 1.7 8.4
    endloop
  endfacet
  facet normal 1 0 0
    outer loop
      vertex 62.45 0 8.4
      vertex 62.45 0 0
      vertex 62.45 8.4 0
    endloop
  endfacet
  facet normal 1 0 0
    outer loop
      vertex 62.45 9 1
      vertex 62.45 88.3 19
      vertex 62.45 88.3 20
    endloop
  endfacet
  facet normal 1 0 0
    outer loop
      vertex 62.45 88.3 19
      vertex 62.45 9 1
      vertex 62.45 88.3 8.4
    endloop
  endfacet
  facet normal 1 0 0
    outer loop
      vertex 62.45 88.3 8.4
      vertex 62.45 9 1
      vertex 62.45 88.3 1
    endloop
  endfacet
  facet normal 1 -0 0
    outer loop
      vertex 62.45 1.60001 20
      vertex 62.45 9 1
      vertex 62.45 88.3 20
    endloop
  endfacet
  facet normal 1 0 0
    outer loop
      vertex 62.45 9 1
      vertex 62.45 1.60001 20
      vertex 62.45 1.7 19
    endloop
  endfacet
  facet normal 1 0 0
    outer loop
      vertex 62.45 1.7 19
      vertex 62.45 1.60001 20
      vertex 62.45 1.60001 19
    endloop
  endfacet
  facet normal 1 -0 0
    outer loop
      vertex 62.45 88.3 19
      vertex 62.45 88.4 8.4
      vertex 62.45 88.4 19
    endloop
  endfacet
  facet normal 1 0 0
    outer loop
      vertex 62.45 88.4 8.4
      vertex 62.45 88.3 19
      vertex 62.45 88.3 8.4
    endloop
  endfacet
  facet normal 1 -0 0
    outer loop
      vertex 62.45 1.7 8.4
      vertex 62.45 9 1
      vertex 62.45 1.7 19
    endloop
  endfacet
  facet normal 1 0 0
    outer loop
      vertex 62.45 9 1
      vertex 62.45 1.7 8.4
      vertex 62.45 1.6 8.4
    endloop
  endfacet
  facet normal 1 0 0
    outer loop
      vertex 62.45 1.59999 8.40001
      vertex 62.45 1.6 9
      vertex 62.45 1.59999 9
    endloop
  endfacet
  facet normal 1 0 0
    outer loop
      vertex 62.45 1.6 9
      vertex 62.45 1.59999 8.40001
      vertex 62.45 1.6 8.4
    endloop
  endfacet
  facet normal 0 1 -0
    outer loop
      vertex 62.45 1.6 8.4
      vertex 60.85 1.6 9
      vertex 62.45 1.6 9
    endloop
  endfacet
  facet normal 0 1 0
    outer loop
      vertex 60.85 1.6 9
      vertex 62.45 1.6 8.4
      vertex 60.85 1.6 8.4
    endloop
  endfacet
  facet normal 0 0 -1
    outer loop
      vertex 60.85 88.3 8.4
      vertex 62.45 88.4 8.4
      vertex 62.45 88.3 8.4
    endloop
  endfacet
  facet normal -0 0 -1
    outer loop
      vertex 62.45 88.4 8.4
      vertex 60.85 88.3 8.4
      vertex 60.85 88.4 8.4
    endloop
  endfacet
  facet normal 0 1 -0
    outer loop
      vertex 62.45 88.3 1
      vertex 60.85 88.3 8.4
      vertex 62.45 88.3 8.4
    endloop
  endfacet
  facet normal 0 1 0
    outer loop
      vertex 60.85 88.3 8.4
      vertex 62.45 88.3 1
      vertex 60.85 88.3 1
    endloop
  endfacet
  facet normal -0 0 1
    outer loop
      vertex 60.85 88.4 19
      vertex 62.45 88.3 19
      vertex 62.45 88.4 19
    endloop
  endfacet
  facet normal 0 0 1
    outer loop
      vertex 62.45 88.3 19
      vertex 60.85 88.4 19
      vertex 60.85 88.3 19
    endloop
  endfacet
  facet normal 0 1 -0
    outer loop
      vertex 62.45 88.3 19
      vertex 60.85 88.3 20
      vertex 62.45 88.3 20
    endloop
  endfacet
  facet normal 0 1 0
    outer loop
      vertex 60.85 88.3 20
      vertex 62.45 88.3 19
      vertex 60.85 88.3 19
    endloop
  endfacet
  facet normal -0 0 1
    outer loop
      vertex 121.7 1.7 8.4
      vertex 123.3 1.6 8.4
      vertex 123.3 1.7 8.4
    endloop
  endfacet
  facet normal 0 0 1
    outer loop
      vertex 123.3 1.6 8.4
      vertex 121.7 1.7 8.4
      vertex 121.7 1.6 8.4
    endloop
  endfacet
  facet normal -1 0 0
    outer loop
      vertex 121.7 8.4 0
      vertex 121.7 0 0
      vertex 121.7 0 8.4
    endloop
  endfacet
  facet normal -1 0 0
    outer loop
      vertex 121.7 9 1
      vertex 121.7 1.6 8.4
      vertex 121.7 1.7 8.4
    endloop
  endfacet
  facet normal -1 0 0
    outer loop
      vertex 121.7 9 1
      vertex 121.7 88.3 8.4
      vertex 121.7 88.3 1
    endloop
  endfacet
  facet normal -1 -0 0
    outer loop
      vertex 121.7 88.3 8.4
      vertex 121.7 9 1
      vertex 121.7 88.3 19
    endloop
  endfacet
  facet normal -1 -0 0
    outer loop
      vertex 121.7 88.3 19
      vertex 121.7 9 1
      vertex 121.7 88.3 20
    endloop
  endfacet
  facet normal -1 0 0
    outer loop
      vertex 121.7 1.7 19
      vertex 121.7 9 1
      vertex 121.7 1.7 8.4
    endloop
  endfacet
  facet normal -1 0 0
    outer loop
      vertex 121.7 1.60001 20
      vertex 121.7 9 1
      vertex 121.7 1.7 19
    endloop
  endfacet
  facet normal -1 0 0
    outer loop
      vertex 121.7 1.60001 20
      vertex 121.7 1.7 19
      vertex 121.7 1.60001 19
    endloop
  endfacet
  facet normal -1 0 0
    outer loop
      vertex 121.7 9 1
      vertex 121.7 1.60001 20
      vertex 121.7 88.3 20
    endloop
  endfacet
  facet normal -1 0 0
    outer loop
      vertex 121.7 88.3 8.4
      vertex 121.7 88.4 19
      vertex 121.7 88.4 8.4
    endloop
  endfacet
  facet normal -1 -0 0
    outer loop
      vertex 121.7 88.4 19
      vertex 121.7 88.3 8.4
      vertex 121.7 88.3 19
    endloop
  endfacet
  facet normal -1 0 0
    outer loop
      vertex 121.7 1.59999 8.40001
      vertex 121.7 1.6 9
      vertex 121.7 1.6 8.4
    endloop
  endfacet
  facet normal -1 -0 0
    outer loop
      vertex 121.7 1.6 9
      vertex 121.7 1.59999 8.40001
      vertex 121.7 1.59999 9
    endloop
  endfacet
  facet normal 0 0 -1
    outer loop
      vertex 121.7 1.60001 19
      vertex 123.3 1.7 19
      vertex 123.3 1.60001 19
    endloop
  endfacet
  facet normal -0 0 -1
    outer loop
      vertex 123.3 1.7 19
      vertex 121.7 1.60001 19
      vertex 121.7 1.7 19
    endloop
  endfacet
  facet normal 0 -1 0
    outer loop
      vertex 121.7 1.7 8.4
      vertex 123.3 1.7 19
      vertex 121.7 1.7 19
    endloop
  endfacet
  facet normal 0 -1 -0
    outer loop
      vertex 123.3 1.7 19
      vertex 121.7 1.7 8.4
      vertex 123.3 1.7 8.4
    endloop
  endfacet
  facet normal 1 0 0
    outer loop
      vertex 123.3 0 8.4
      vertex 123.3 0 0
      vertex 123.3 8.4 0
    endloop
  endfacet
  facet normal 1 0 0
    outer loop
      vertex 123.3 9 1
      vertex 123.3 88.3 19
      vertex 123.3 88.3 20
    endloop
  endfacet
  facet normal 1 0 0
    outer loop
      vertex 123.3 88.3 19
      vertex 123.3 9 1
      vertex 123.3 88.3 8.4
    endloop
  endfacet
  facet normal 1 0 0
    outer loop
      vertex 123.3 88.3 8.4
      vertex 123.3 9 1
      vertex 123.3 88.3 1
    endloop
  endfacet
  facet normal 1 -0 0
    outer loop
      vertex 123.3 1.60001 20
      vertex 123.3 9 1
      vertex 123.3 88.3 20
    endloop
  endfacet
  facet normal 1 0 0
    outer loop
      vertex 123.3 9 1
      vertex 123.3 1.60001 20
      vertex 123.3 1.7 19
    endloop
  endfacet
  facet normal 1 0 0
    outer loop
      vertex 123.3 1.7 19
      vertex 123.3 1.60001 20
      vertex 123.3 1.60001 19
    endloop
  endfacet
  facet normal 1 -0 0
    outer loop
      vertex 123.3 88.3 19
      vertex 123.3 88.4 8.4
      vertex 123.3 88.4 19
    endloop
  endfacet
  facet normal 1 0 0
    outer loop
      vertex 123.3 88.4 8.4
      vertex 123.3 88.3 19
      vertex 123.3 88.3 8.4
    endloop
  endfacet
  facet normal 1 -0 0
    outer loop
      vertex 123.3 1.7 8.4
      vertex 123.3 9 1
      vertex 123.3 1.7 19
    endloop
  endfacet
  facet normal 1 0 0
    outer loop
      vertex 123.3 9 1
      vertex 123.3 1.7 8.4
      vertex 123.3 1.6 8.4
    endloop
  endfacet
  facet normal 1 0 0
    outer loop
      vertex 123.3 1.59999 8.40001
      vertex 123.3 1.6 9
      vertex 123.3 1.59999 9
    endloop
  endfacet
  facet normal 1 0 0
    outer loop
      vertex 123.3 1.6 9
      vertex 123.3 1.59999 8.40001
      vertex 123.3 1.6 8.4
    endloop
  endfacet
  facet normal 0 1 -0
    outer loop
      vertex 123.3 1.6 8.4
      vertex 121.7 1.6 9
      vertex 123.3 1.6 9
    endloop
  endfacet
  facet normal 0 1 0
    outer loop
      vertex 121.7 1.6 9
      vertex 123.3 1.6 8.4
      vertex 121.7 1.6 8.4
    endloop
  endfacet
  facet normal 0 0 -1
    outer loop
      vertex 121.7 88.3 8.4
      vertex 123.3 88.4 8.4
      vertex 123.3 88.3 8.4
    endloop
  endfacet
  facet normal -0 0 -1
    outer loop
      vertex 123.3 88.4 8.4
      vertex 121.7 88.3 8.4
      vertex 121.7 88.4 8.4
    endloop
  endfacet
  facet normal 0 1 -0
    outer loop
      vertex 123.3 88.3 1
      vertex 121.7 88.3 8.4
      vertex 123.3 88.3 8.4
    endloop
  endfacet
  facet normal 0 1 0
    outer loop
      vertex 121.7 88.3 8.4
      vertex 123.3 88.3 1
      vertex 121.7 88.3 1
    endloop
  endfacet
  facet normal -0 0 1
    outer loop
      vertex 121.7 88.4 19
      vertex 123.3 88.3 19
      vertex 123.3 88.4 19
    endloop
  endfacet
  facet normal 0 0 1
    outer loop
      vertex 123.3 88.3 19
      vertex 121.7 88.4 19
      vertex 121.7 88.3 19
    endloop
  endfacet
  facet normal 0 1 -0
    outer loop
      vertex 123.3 88.3 19
      vertex 121.7 88.3 20
      vertex 123.3 88.3 20
    endloop
  endfacet
  facet normal 0 1 0
    outer loop
      vertex 121.7 88.3 20
      vertex 123.3 88.3 19
      vertex 121.7 88.3 19
    endloop
  endfacet
  facet normal -0 0 1
    outer loop
      vertex 182.55 1.7 8.4
      vertex 184.15 1.6 8.4
      vertex 184.15 1.7 8.4
    endloop
  endfacet
  facet normal 0 0 1
    outer loop
      vertex 184.15 1.6 8.4
      vertex 182.55 1.7 8.4
      vertex 182.55 1.6 8.4
    endloop
  endfacet
  facet normal -1 0 0
    outer loop
      vertex 182.55 8.4 0
      vertex 182.55 0 0
      vertex 182.55 0 8.4
    endloop
  endfacet
  facet normal -1 0 0
    outer loop
      vertex 182.55 9 1
      vertex 182.55 1.6 8.4
      vertex 182.55 1.7 8.4
    endloop
  endfacet
  facet normal -1 0 0
    outer loop
      vertex 182.55 9 1
      vertex 182.55 88.3 8.4
      vertex 182.55 88.3 1
    endloop
  endfacet
  facet normal -1 -0 0
    outer loop
      vertex 182.55 88.3 8.4
      vertex 182.55 9 1
      vertex 182.55 88.3 19
    endloop
  endfacet
  facet normal -1 -0 0
    outer loop
      vertex 182.55 88.3 19
      vertex 182.55 9 1
      vertex 182.55 88.3 20
    endloop
  endfacet
  facet normal -1 0 0
    outer loop
      vertex 182.55 1.7 19
      vertex 182.55 9 1
      vertex 182.55 1.7 8.4
    endloop
  endfacet
  facet normal -1 0 0
    outer loop
      vertex 182.55 1.60001 20
      vertex 182.55 9 1
      vertex 182.55 1.7 19
    endloop
  endfacet
  facet normal -1 0 0
    outer loop
      vertex 182.55 1.60001 20
      vertex 182.55 1.7 19
      vertex 182.55 1.60001 19
    endloop
  endfacet
  facet normal -1 0 0
    outer loop
      vertex 182.55 9 1
      vertex 182.55 1.60001 20
      vertex 182.55 88.3 20
    endloop
  endfacet
  facet normal -1 0 0
    outer loop
      vertex 182.55 88.3 8.4
      vertex 182.55 88.4 19
      vertex 182.55 88.4 8.4
    endloop
  endfacet
  facet normal -1 -0 0
    outer loop
      vertex 182.55 88.4 19
      vertex 182.55 88.3 8.4
      vertex 182.55 88.3 19
    endloop
  endfacet
  facet normal -1 0 0
    outer loop
      vertex 182.55 1.59999 8.40001
      vertex 182.55 1.6 9
      vertex 182.55 1.6 8.4
    endloop
  endfacet
  facet normal -1 -0 0
    outer loop
      vertex 182.55 1.6 9
      vertex 182.55 1.59999 8.40001
      vertex 182.55 1.59999 9
    endloop
  endfacet
  facet normal 0 0 -1
    outer loop
      vertex 182.55 1.60001 19
      vertex 184.15 1.7 19
      vertex 184.15 1.60001 19
    endloop
  endfacet
  facet normal -0 0 -1
    outer loop
      vertex 184.15 1.7 19
      vertex 182.55 1.60001 19
      vertex 182.55 1.7 19
    endloop
  endfacet
  facet normal 0 -1 0
    outer loop
      vertex 182.55 1.7 8.4
      vertex 184.15 1.7 19
      vertex 182.55 1.7 19
    endloop
  endfacet
  facet normal 0 -1 -0
    outer loop
      vertex 184.15 1.7 19
      vertex 182.55 1.7 8.4
      vertex 184.15 1.7 8.4
    endloop
  endfacet
  facet normal 1 0 0
    outer loop
      vertex 184.15 0 8.4
      vertex 184.15 0 0
      vertex 184.15 8.4 0
    endloop
  endfacet
  facet normal 1 0 0
    outer loop
      vertex 184.15 9 1
      vertex 184.15 88.3 19
      vertex 184.15 88.3 20
    endloop
  endfacet
  facet normal 1 0 0
    outer loop
      vertex 184.15 88.3 19
      vertex 184.15 9 1
      vertex 184.15 88.3 8.4
    endloop
  endfacet
  facet normal 1 0 0
    outer loop
      vertex 184.15 88.3 8.4
      vertex 184.15 9 1
      vertex 184.15 88.3 1
    endloop
  endfacet
  facet normal 1 -0 0
    outer loop
      vertex 184.15 1.60001 20
      vertex 184.15 9 1
      vertex 184.15 88.3 20
    endloop
  endfacet
  facet normal 1 0 0
    outer loop
      vertex 184.15 9 1
      vertex 184.15 1.60001 20
      vertex 184.15 1.7 19
    endloop
  endfacet
  facet normal 1 0 0
    outer loop
      vertex 184.15 1.7 19
      vertex 184.15 1.60001 20
      vertex 184.15 1.60001 19
    endloop
  endfacet
  facet normal 1 -0 0
    outer loop
      vertex 184.15 88.3 19
      vertex 184.15 88.4 8.4
      vertex 184.15 88.4 19
    endloop
  endfacet
  facet normal 1 0 0
    outer loop
      vertex 184.15 88.4 8.4
      vertex 184.15 88.3 19
      vertex 184.15 88.3 8.4
    endloop
  endfacet
  facet normal 1 -0 0
    outer loop
      vertex 184.15 1.7 8.4
      vertex 184.15 9 1
      vertex 184.15 1.7 19
    endloop
  endfacet
  facet normal 1 0 0
    outer loop
      vertex 184.15 9 1
      vertex 184.15 1.7 8.4
      vertex 184.15 1.6 8.4
    endloop
  endfacet
  facet normal 1 0 0
    outer loop
      vertex 184.15 1.59999 8.40001
      vertex 184.15 1.6 9
      vertex 184.15 1.59999 9
    endloop
  endfacet
  facet normal 1 0 0
    outer loop
      vertex 184.15 1.6 9
      vertex 184.15 1.59999 8.40001
      vertex 184.15 1.6 8.4
    endloop
  endfacet
  facet normal 0 1 -0
    outer loop
      vertex 184.15 1.6 8.4
      vertex 182.55 1.6 9
      vertex 184.15 1.6 9
    endloop
  endfacet
  facet normal 0 1 0
    outer loop
      vertex 182.55 1.6 9
      vertex 184.15 1.6 8.4
      vertex 182.55 1.6 8.4
    endloop
  endfacet
  facet normal 0 0 -1
    outer loop
      vertex 182.55 88.3 8.4
      vertex 184.15 88.4 8.4
      vertex 184.15 88.3 8.4
    endloop
  endfacet
  facet normal -0 0 -1
    outer loop
      vertex 184.15 88.4 8.4
      vertex 182.55 88.3 8.4
      vertex 182.55 88.4 8.4
    endloop
  endfacet
  facet normal 0 1 -0
    outer loop
      vertex 184.15 88.3 1
      vertex 182.55 88.3 8.4
      vertex 184.15 88.3 8.4
    endloop
  endfacet
  facet normal 0 1 0
    outer loop
      vertex 182.55 88.3 8.4
      vertex 184.15 88.3 1
      vertex 182.55 88.3 1
    endloop
  endfacet
  facet normal -0 0 1
    outer loop
      vertex 182.55 88.4 19
      vertex 184.15 88.3 19
      vertex 184.15 88.4 19
    endloop
  endfacet
  facet normal 0 0 1
    outer loop
      vertex 184.15 88.3 19
      vertex 182.55 88.4 19
      vertex 182.55 88.3 19
    endloop
  endfacet
  facet normal 0 1 -0
    outer loop
      vertex 184.15 88.3 19
      vertex 182.55 88.3 20
      vertex 184.15 88.3 20
    endloop
  endfacet
  facet normal 0 1 0
    outer loop
      vertex 182.55 88.3 20
      vertex 184.15 88.3 19
      vertex 182.55 88.3 19
    endloop
  endfacet
endsolid OpenSCAD_Model
