solid OpenSCAD_Model
  facet normal 0 0 -1
    outer loop
      vertex 0 0 0
      vertex 245 90 0
      vertex 245 0 0
    endloop
  endfacet
  facet normal -0 0 -1
    outer loop
      vertex 245 90 0
      vertex 0 0 0
      vertex 0 90 0
    endloop
  endfacet
  facet normal -1 0 0
    outer loop
      vertex 0 0 0
      vertex 0 90 20
      vertex 0 90 0
    endloop
  endfacet
  facet normal -1 -0 0
    outer loop
      vertex 0 90 20
      vertex 0 0 0
      vertex 0 0 20
    endloop
  endfacet
  facet normal -0 0 1
    outer loop
      vertex 1.60001 88.4 1
      vertex 81.1333 20.6 1
      vertex 81.1333 88.4 1
    endloop
  endfacet
  facet normal 0 0 1
    outer loop
      vertex 81.1333 20.6 1
      vertex 1.60001 88.4 1
      vertex 1.60001 20.6 1
    endloop
  endfacet
  facet normal -0 0 1
    outer loop
      vertex 163.867 88.4 1
      vertex 243.4 20.6 1
      vertex 243.4 88.4 1
    endloop
  endfacet
  facet normal 0 0 1
    outer loop
      vertex 243.4 20.6 1
      vertex 163.867 88.4 1
      vertex 163.867 20.6 1
    endloop
  endfacet
  facet normal -0 0 1
    outer loop
      vertex 82.7333 88.4 1
      vertex 162.267 20.6 1
      vertex 162.267 88.4 1
    endloop
  endfacet
  facet normal 0 0 1
    outer loop
      vertex 162.267 20.6 1
      vertex 82.7333 88.4 1
      vertex 82.7333 20.6 1
    endloop
  endfacet
  facet normal 0 1 -0
    outer loop
      vertex 245 90 0
      vertex 0 90 20
      vertex 245 90 20
    endloop
  endfacet
  facet normal 0 1 0
    outer loop
      vertex 0 90 20
      vertex 245 90 0
      vertex 0 90 0
    endloop
  endfacet
  facet normal 1 -0 0
    outer loop
      vertex 245 0 20
      vertex 245 90 0
      vertex 245 90 20
    endloop
  endfacet
  facet normal 1 0 0
    outer loop
      vertex 245 90 0
      vertex 245 0 20
      vertex 245 0 0
    endloop
  endfacet
  facet normal 0 -1 0
    outer loop
      vertex 0 0 0
      vertex 245 0 20
      vertex 0 0 20
    endloop
  endfacet
  facet normal 0 -1 -0
    outer loop
      vertex 245 0 20
      vertex 0 0 0
      vertex 245 0 0
    endloop
  endfacet
  facet normal 0 0 1
    outer loop
      vertex 245 90 20
      vertex 243.4 88.4 20
      vertex 245 0 20
    endloop
  endfacet
  facet normal 0 0 1
    outer loop
      vertex 245 90 20
      vertex 163.867 88.4 20
      vertex 243.4 88.4 20
    endloop
  endfacet
  facet normal 0 0 1
    outer loop
      vertex 163.867 88.4 20
      vertex 162.267 88.4 20
      vertex 163.867 1.60001 20
    endloop
  endfacet
  facet normal 0 0 1
    outer loop
      vertex 245 90 20
      vertex 162.267 88.4 20
      vertex 163.867 88.4 20
    endloop
  endfacet
  facet normal 0 0 1
    outer loop
      vertex 245 90 20
      vertex 82.7333 88.4 20
      vertex 162.267 88.4 20
    endloop
  endfacet
  facet normal 0 0 1
    outer loop
      vertex 82.7333 88.4 20
      vertex 81.1333 88.4 20
      vertex 82.7333 1.60001 20
    endloop
  endfacet
  facet normal 0 0 1
    outer loop
      vertex 245 90 20
      vertex 81.1333 88.4 20
      vertex 82.7333 88.4 20
    endloop
  endfacet
  facet normal -0 0 1
    outer loop
      vertex 0 90 20
      vertex 81.1333 88.4 20
      vertex 245 90 20
    endloop
  endfacet
  facet normal 0 0 1
    outer loop
      vertex 1.60001 88.4 20
      vertex 0 90 20
      vertex 1.60001 1.60001 20
    endloop
  endfacet
  facet normal 0 0 1
    outer loop
      vertex 81.1333 88.4 20
      vertex 0 90 20
      vertex 1.60001 88.4 20
    endloop
  endfacet
  facet normal -0 0 1
    outer loop
      vertex 243.4 1.60001 20
      vertex 245 0 20
      vertex 243.4 88.4 20
    endloop
  endfacet
  facet normal -0 0 1
    outer loop
      vertex 163.867 1.60001 20
      vertex 245 0 20
      vertex 243.4 1.60001 20
    endloop
  endfacet
  facet normal 0 0 1
    outer loop
      vertex 162.267 1.60001 20
      vertex 163.867 1.60001 20
      vertex 162.267 88.4 20
    endloop
  endfacet
  facet normal -0 0 1
    outer loop
      vertex 162.267 1.60001 20
      vertex 245 0 20
      vertex 163.867 1.60001 20
    endloop
  endfacet
  facet normal -0 0 1
    outer loop
      vertex 82.7333 1.60001 20
      vertex 245 0 20
      vertex 162.267 1.60001 20
    endloop
  endfacet
  facet normal 0 0 1
    outer loop
      vertex 81.1333 1.60001 20
      vertex 82.7333 1.60001 20
      vertex 81.1333 88.4 20
    endloop
  endfacet
  facet normal -0 0 1
    outer loop
      vertex 81.1333 1.60001 20
      vertex 245 0 20
      vertex 82.7333 1.60001 20
    endloop
  endfacet
  facet normal 0 0 1
    outer loop
      vertex 0 0 20
      vertex 81.1333 1.60001 20
      vertex 1.60001 1.60001 20
    endloop
  endfacet
  facet normal 0 0 1
    outer loop
      vertex 81.1333 1.60001 20
      vertex 0 0 20
      vertex 245 0 20
    endloop
  endfacet
  facet normal 0 0 1
    outer loop
      vertex 0 0 20
      vertex 1.60001 1.60001 20
      vertex 0 90 20
    endloop
  endfacet
  facet normal 1 0 0
    outer loop
      vertex 1.60001 88.4 20
      vertex 1.60001 20.6 1.10408
      vertex 1.60001 88.4 1
    endloop
  endfacet
  facet normal 1 -0 0
    outer loop
      vertex 1.60001 1.60001 20
      vertex 1.60001 20.6 1.10408
      vertex 1.60001 88.4 20
    endloop
  endfacet
  facet normal 1 -0 -0
    outer loop
      vertex 1.60001 11.1 3.54552
      vertex 1.60001 20.6 1.10408
      vertex 1.60001 1.60001 20
    endloop
  endfacet
  facet normal 1 0 0
    outer loop
      vertex 1.60001 20.6 1.10408
      vertex 1.60001 14.7287 1.92992
      vertex 1.60001 18.6139 1.10408
    endloop
  endfacet
  facet normal 1 0 0
    outer loop
      vertex 1.60001 20.6 1.10408
      vertex 1.60001 11.1 3.54552
      vertex 1.60001 14.7287 1.92992
    endloop
  endfacet
  facet normal 1 0 0
    outer loop
      vertex 1.60001 11.1 3.54552
      vertex 1.60001 1.60001 20
      vertex 1.60001 7.88651 5.88023
    endloop
  endfacet
  facet normal 1 0 0
    outer loop
      vertex 1.60001 7.88651 5.88023
      vertex 1.60001 1.60001 20
      vertex 1.60001 5.22866 8.83208
    endloop
  endfacet
  facet normal 1 0 0
    outer loop
      vertex 1.60001 5.22866 8.83208
      vertex 1.60001 1.60001 20
      vertex 1.60001 3.24262 12.272
    endloop
  endfacet
  facet normal 1 0 0
    outer loop
      vertex 1.60001 3.24262 12.272
      vertex 1.60001 1.60001 20
      vertex 1.60001 2.01519 16.0497
    endloop
  endfacet
  facet normal 1 0 0
    outer loop
      vertex 1.60001 2.01519 16.0497
      vertex 1.60001 1.60001 20
      vertex 1.60001 1.60001 19.9999
    endloop
  endfacet
  facet normal 1 0 0
    outer loop
      vertex 1.60001 88.4 1
      vertex 1.60001 20.6 1.10408
      vertex 1.60001 20.6 1
    endloop
  endfacet
  facet normal 0 -1 0
    outer loop
      vertex 163.867 88.4 1
      vertex 243.4 88.4 20
      vertex 163.867 88.4 20
    endloop
  endfacet
  facet normal 0 -1 -0
    outer loop
      vertex 243.4 88.4 20
      vertex 163.867 88.4 1
      vertex 243.4 88.4 1
    endloop
  endfacet
  facet normal 0 -1 0
    outer loop
      vertex 1.60001 88.4 1
      vertex 81.1333 88.4 20
      vertex 1.60001 88.4 20
    endloop
  endfacet
  facet normal 0 -1 -0
    outer loop
      vertex 81.1333 88.4 20
      vertex 1.60001 88.4 1
      vertex 81.1333 88.4 1
    endloop
  endfacet
  facet normal 0 -1 0
    outer loop
      vertex 82.7333 88.4 1
      vertex 162.267 88.4 20
      vertex 82.7333 88.4 20
    endloop
  endfacet
  facet normal 0 -1 -0
    outer loop
      vertex 162.267 88.4 20
      vertex 82.7333 88.4 1
      vertex 162.267 88.4 1
    endloop
  endfacet
  facet normal -1 0 0
    outer loop
      vertex 243.4 20.6 1.10408
      vertex 243.4 88.4 1
      vertex 243.4 20.6 1
    endloop
  endfacet
  facet normal -1 0 0
    outer loop
      vertex 243.4 88.4 1
      vertex 243.4 20.6 1.10408
      vertex 243.4 88.4 20
    endloop
  endfacet
  facet normal -1 0 0
    outer loop
      vertex 243.4 14.7287 1.92992
      vertex 243.4 20.6 1.10408
      vertex 243.4 18.6139 1.10408
    endloop
  endfacet
  facet normal -1 0 0
    outer loop
      vertex 243.4 11.1 3.54552
      vertex 243.4 20.6 1.10408
      vertex 243.4 14.7287 1.92992
    endloop
  endfacet
  facet normal -1 0 0
    outer loop
      vertex 243.4 20.6 1.10408
      vertex 243.4 11.1 3.54552
      vertex 243.4 1.60001 20
    endloop
  endfacet
  facet normal -1 0 0
    outer loop
      vertex 243.4 1.60001 20
      vertex 243.4 11.1 3.54552
      vertex 243.4 7.88651 5.88023
    endloop
  endfacet
  facet normal -1 0 0
    outer loop
      vertex 243.4 1.60001 20
      vertex 243.4 7.88651 5.88023
      vertex 243.4 5.22866 8.83208
    endloop
  endfacet
  facet normal -1 0 0
    outer loop
      vertex 243.4 1.60001 20
      vertex 243.4 5.22866 8.83208
      vertex 243.4 3.24262 12.272
    endloop
  endfacet
  facet normal -1 0 0
    outer loop
      vertex 243.4 1.60001 20
      vertex 243.4 3.24262 12.272
      vertex 243.4 2.01519 16.0497
    endloop
  endfacet
  facet normal -1 0 0
    outer loop
      vertex 243.4 1.60001 20
      vertex 243.4 2.01519 16.0497
      vertex 243.4 1.60001 19.9999
    endloop
  endfacet
  facet normal -1 0 0
    outer loop
      vertex 243.4 20.6 1.10408
      vertex 243.4 1.60001 20
      vertex 243.4 88.4 20
    endloop
  endfacet
  facet normal 0 1 -0
    outer loop
      vertex 243.4 1.60001 19.9999
      vertex 163.867 1.60001 20
      vertex 243.4 1.60001 20
    endloop
  endfacet
  facet normal 0 1 0
    outer loop
      vertex 163.867 1.60001 20
      vertex 243.4 1.60001 19.9999
      vertex 163.867 1.60001 19.9999
    endloop
  endfacet
  facet normal 0 1 -0
    outer loop
      vertex 81.1333 1.60001 19.9999
      vertex 1.60001 1.60001 20
      vertex 81.1333 1.60001 20
    endloop
  endfacet
  facet normal 0 1 0
    outer loop
      vertex 1.60001 1.60001 20
      vertex 81.1333 1.60001 19.9999
      vertex 1.60001 1.60001 19.9999
    endloop
  endfacet
  facet normal 0 1 -0
    outer loop
      vertex 162.267 1.60001 19.9999
      vertex 82.7333 1.60001 20
      vertex 162.267 1.60001 20
    endloop
  endfacet
  facet normal 0 1 0
    outer loop
      vertex 82.7333 1.60001 20
      vertex 162.267 1.60001 19.9999
      vertex 82.7333 1.60001 19.9999
    endloop
  endfacet
  facet normal -1 0 0
    outer loop
      vertex 81.1333 20.6 1.10408
      vertex 81.1333 88.4 1
      vertex 81.1333 20.6 1
    endloop
  endfacet
  facet normal -1 0 0
    outer loop
      vertex 81.1333 88.4 1
      vertex 81.1333 20.6 1.10408
      vertex 81.1333 88.4 20
    endloop
  endfacet
  facet normal -1 0 0
    outer loop
      vertex 81.1333 14.7287 1.92992
      vertex 81.1333 20.6 1.10408
      vertex 81.1333 18.6139 1.10408
    endloop
  endfacet
  facet normal -1 0 0
    outer loop
      vertex 81.1333 11.1 3.54552
      vertex 81.1333 20.6 1.10408
      vertex 81.1333 14.7287 1.92992
    endloop
  endfacet
  facet normal -1 0 0
    outer loop
      vertex 81.1333 20.6 1.10408
      vertex 81.1333 11.1 3.54552
      vertex 81.1333 1.60001 20
    endloop
  endfacet
  facet normal -1 0 0
    outer loop
      vertex 81.1333 1.60001 20
      vertex 81.1333 11.1 3.54552
      vertex 81.1333 7.88651 5.88023
    endloop
  endfacet
  facet normal -1 0 0
    outer loop
      vertex 81.1333 1.60001 20
      vertex 81.1333 7.88651 5.88023
      vertex 81.1333 5.22866 8.83208
    endloop
  endfacet
  facet normal -1 0 0
    outer loop
      vertex 81.1333 1.60001 20
      vertex 81.1333 5.22866 8.83208
      vertex 81.1333 3.24262 12.272
    endloop
  endfacet
  facet normal -1 0 0
    outer loop
      vertex 81.1333 1.60001 20
      vertex 81.1333 3.24262 12.272
      vertex 81.1333 2.01519 16.0497
    endloop
  endfacet
  facet normal -1 0 0
    outer loop
      vertex 81.1333 1.60001 20
      vertex 81.1333 2.01519 16.0497
      vertex 81.1333 1.60001 19.9999
    endloop
  endfacet
  facet normal -1 0 0
    outer loop
      vertex 81.1333 20.6 1.10408
      vertex 81.1333 1.60001 20
      vertex 81.1333 88.4 20
    endloop
  endfacet
  facet normal 1 0 0
    outer loop
      vertex 82.7333 88.4 20
      vertex 82.7333 20.6 1.10408
      vertex 82.7333 88.4 1
    endloop
  endfacet
  facet normal 1 -0 0
    outer loop
      vertex 82.7333 1.60001 20
      vertex 82.7333 20.6 1.10408
      vertex 82.7333 88.4 20
    endloop
  endfacet
  facet normal 1 -0 -0
    outer loop
      vertex 82.7333 11.1 3.54552
      vertex 82.7333 20.6 1.10408
      vertex 82.7333 1.60001 20
    endloop
  endfacet
  facet normal 1 0 0
    outer loop
      vertex 82.7333 20.6 1.10408
      vertex 82.7333 14.7287 1.92992
      vertex 82.7333 18.6139 1.10408
    endloop
  endfacet
  facet normal 1 0 0
    outer loop
      vertex 82.7333 20.6 1.10408
      vertex 82.7333 11.1 3.54552
      vertex 82.7333 14.7287 1.92992
    endloop
  endfacet
  facet normal 1 0 0
    outer loop
      vertex 82.7333 11.1 3.54552
      vertex 82.7333 1.60001 20
      vertex 82.7333 7.88651 5.88023
    endloop
  endfacet
  facet normal 1 0 0
    outer loop
      vertex 82.7333 7.88651 5.88023
      vertex 82.7333 1.60001 20
      vertex 82.7333 5.22866 8.83208
    endloop
  endfacet
  facet normal 1 0 0
    outer loop
      vertex 82.7333 5.22866 8.83208
      vertex 82.7333 1.60001 20
      vertex 82.7333 3.24262 12.272
    endloop
  endfacet
  facet normal 1 0 0
    outer loop
      vertex 82.7333 3.24262 12.272
      vertex 82.7333 1.60001 20
      vertex 82.7333 2.01519 16.0497
    endloop
  endfacet
  facet normal 1 0 0
    outer loop
      vertex 82.7333 2.01519 16.0497
      vertex 82.7333 1.60001 20
      vertex 82.7333 1.60001 19.9999
    endloop
  endfacet
  facet normal 1 0 0
    outer loop
      vertex 82.7333 88.4 1
      vertex 82.7333 20.6 1.10408
      vertex 82.7333 20.6 1
    endloop
  endfacet
  facet normal -1 0 0
    outer loop
      vertex 162.267 20.6 1.10408
      vertex 162.267 88.4 1
      vertex 162.267 20.6 1
    endloop
  endfacet
  facet normal -1 0 0
    outer loop
      vertex 162.267 88.4 1
      vertex 162.267 20.6 1.10408
      vertex 162.267 88.4 20
    endloop
  endfacet
  facet normal -1 0 0
    outer loop
      vertex 162.267 14.7287 1.92992
      vertex 162.267 20.6 1.10408
      vertex 162.267 18.6139 1.10408
    endloop
  endfacet
  facet normal -1 0 0
    outer loop
      vertex 162.267 11.1 3.54552
      vertex 162.267 20.6 1.10408
      vertex 162.267 14.7287 1.92992
    endloop
  endfacet
  facet normal -1 0 0
    outer loop
      vertex 162.267 20.6 1.10408
      vertex 162.267 11.1 3.54552
      vertex 162.267 1.60001 20
    endloop
  endfacet
  facet normal -1 0 0
    outer loop
      vertex 162.267 1.60001 20
      vertex 162.267 11.1 3.54552
      vertex 162.267 7.88651 5.88023
    endloop
  endfacet
  facet normal -1 0 0
    outer loop
      vertex 162.267 1.60001 20
      vertex 162.267 7.88651 5.88023
      vertex 162.267 5.22866 8.83208
    endloop
  endfacet
  facet normal -1 0 0
    outer loop
      vertex 162.267 1.60001 20
      vertex 162.267 5.22866 8.83208
      vertex 162.267 3.24262 12.272
    endloop
  endfacet
  facet normal -1 0 0
    outer loop
      vertex 162.267 1.60001 20
      vertex 162.267 3.24262 12.272
      vertex 162.267 2.01519 16.0497
    endloop
  endfacet
  facet normal -1 0 0
    outer loop
      vertex 162.267 1.60001 20
      vertex 162.267 2.01519 16.0497
      vertex 162.267 1.60001 19.9999
    endloop
  endfacet
  facet normal -1 0 0
    outer loop
      vertex 162.267 20.6 1.10408
      vertex 162.267 1.60001 20
      vertex 162.267 88.4 20
    endloop
  endfacet
  facet normal 1 0 0
    outer loop
      vertex 163.867 88.4 20
      vertex 163.867 20.6 1.10408
      vertex 163.867 88.4 1
    endloop
  endfacet
  facet normal 1 -0 0
    outer loop
      vertex 163.867 1.60001 20
      vertex 163.867 20.6 1.10408
      vertex 163.867 88.4 20
    endloop
  endfacet
  facet normal 1 -0 -0
    outer loop
      vertex 163.867 11.1 3.54552
      vertex 163.867 20.6 1.10408
      vertex 163.867 1.60001 20
    endloop
  endfacet
  facet normal 1 0 0
    outer loop
      vertex 163.867 20.6 1.10408
      vertex 163.867 14.7287 1.92992
      vertex 163.867 18.6139 1.10408
    endloop
  endfacet
  facet normal 1 0 0
    outer loop
      vertex 163.867 20.6 1.10408
      vertex 163.867 11.1 3.54552
      vertex 163.867 14.7287 1.92992
    endloop
  endfacet
  facet normal 1 0 0
    outer loop
      vertex 163.867 11.1 3.54552
      vertex 163.867 1.60001 20
      vertex 163.867 7.88651 5.88023
    endloop
  endfacet
  facet normal 1 0 0
    outer loop
      vertex 163.867 7.88651 5.88023
      vertex 163.867 1.60001 20
      vertex 163.867 5.22866 8.83208
    endloop
  endfacet
  facet normal 1 0 0
    outer loop
      vertex 163.867 5.22866 8.83208
      vertex 163.867 1.60001 20
      vertex 163.867 3.24262 12.272
    endloop
  endfacet
  facet normal 1 0 0
    outer loop
      vertex 163.867 3.24262 12.272
      vertex 163.867 1.60001 20
      vertex 163.867 2.01519 16.0497
    endloop
  endfacet
  facet normal 1 0 0
    outer loop
      vertex 163.867 2.01519 16.0497
      vertex 163.867 1.60001 20
      vertex 163.867 1.60001 19.9999
    endloop
  endfacet
  facet normal 1 0 0
    outer loop
      vertex 163.867 88.4 1
      vertex 163.867 20.6 1.10408
      vertex 163.867 20.6 1
    endloop
  endfacet
  facet normal -0 0 1
    outer loop
      vertex 1.60001 20.6 1.10408
      vertex 81.1333 18.6139 1.10408
      vertex 81.1333 20.6 1.10408
    endloop
  endfacet
  facet normal 0 0 1
    outer loop
      vertex 81.1333 18.6139 1.10408
      vertex 1.60001 20.6 1.10408
      vertex 1.60001 18.6139 1.10408
    endloop
  endfacet
  facet normal -0 0 1
    outer loop
      vertex 163.867 20.6 1.10408
      vertex 243.4 18.6139 1.10408
      vertex 243.4 20.6 1.10408
    endloop
  endfacet
  facet normal 0 0 1
    outer loop
      vertex 243.4 18.6139 1.10408
      vertex 163.867 20.6 1.10408
      vertex 163.867 18.6139 1.10408
    endloop
  endfacet
  facet normal -0 0 1
    outer loop
      vertex 82.7333 20.6 1.10408
      vertex 162.267 18.6139 1.10408
      vertex 162.267 20.6 1.10408
    endloop
  endfacet
  facet normal 0 0 1
    outer loop
      vertex 162.267 18.6139 1.10408
      vertex 82.7333 20.6 1.10408
      vertex 82.7333 18.6139 1.10408
    endloop
  endfacet
  facet normal -0 0.207915 0.978147
    outer loop
      vertex 1.60001 18.6139 1.10408
      vertex 81.1333 14.7287 1.92992
      vertex 81.1333 18.6139 1.10408
    endloop
  endfacet
  facet normal 0 0.207915 0.978147
    outer loop
      vertex 81.1333 14.7287 1.92992
      vertex 1.60001 18.6139 1.10408
      vertex 1.60001 14.7287 1.92992
    endloop
  endfacet
  facet normal -0 0.207915 0.978147
    outer loop
      vertex 163.867 18.6139 1.10408
      vertex 243.4 14.7287 1.92992
      vertex 243.4 18.6139 1.10408
    endloop
  endfacet
  facet normal 0 0.207915 0.978147
    outer loop
      vertex 243.4 14.7287 1.92992
      vertex 163.867 18.6139 1.10408
      vertex 163.867 14.7287 1.92992
    endloop
  endfacet
  facet normal -0 0.207915 0.978147
    outer loop
      vertex 82.7333 18.6139 1.10408
      vertex 162.267 14.7287 1.92992
      vertex 162.267 18.6139 1.10408
    endloop
  endfacet
  facet normal 0 0.207915 0.978147
    outer loop
      vertex 162.267 14.7287 1.92992
      vertex 82.7333 18.6139 1.10408
      vertex 82.7333 14.7287 1.92992
    endloop
  endfacet
  facet normal -0 0.406736 0.913546
    outer loop
      vertex 1.60001 14.7287 1.92992
      vertex 81.1333 11.1 3.54552
      vertex 81.1333 14.7287 1.92992
    endloop
  endfacet
  facet normal 0 0.406736 0.913546
    outer loop
      vertex 81.1333 11.1 3.54552
      vertex 1.60001 14.7287 1.92992
      vertex 1.60001 11.1 3.54552
    endloop
  endfacet
  facet normal -0 0.406736 0.913546
    outer loop
      vertex 163.867 14.7287 1.92992
      vertex 243.4 11.1 3.54552
      vertex 243.4 14.7287 1.92992
    endloop
  endfacet
  facet normal 0 0.406736 0.913546
    outer loop
      vertex 243.4 11.1 3.54552
      vertex 163.867 14.7287 1.92992
      vertex 163.867 11.1 3.54552
    endloop
  endfacet
  facet normal -0 0.406736 0.913546
    outer loop
      vertex 82.7333 14.7287 1.92992
      vertex 162.267 11.1 3.54552
      vertex 162.267 14.7287 1.92992
    endloop
  endfacet
  facet normal 0 0.406736 0.913546
    outer loop
      vertex 162.267 11.1 3.54552
      vertex 82.7333 14.7287 1.92992
      vertex 82.7333 11.1 3.54552
    endloop
  endfacet
  facet normal -0 0.587781 0.80902
    outer loop
      vertex 1.60001 11.1 3.54552
      vertex 81.1333 7.88651 5.88023
      vertex 81.1333 11.1 3.54552
    endloop
  endfacet
  facet normal 0 0.587781 0.80902
    outer loop
      vertex 81.1333 7.88651 5.88023
      vertex 1.60001 11.1 3.54552
      vertex 1.60001 7.88651 5.88023
    endloop
  endfacet
  facet normal -0 0.587781 0.80902
    outer loop
      vertex 163.867 11.1 3.54552
      vertex 243.4 7.88651 5.88023
      vertex 243.4 11.1 3.54552
    endloop
  endfacet
  facet normal 0 0.587781 0.80902
    outer loop
      vertex 243.4 7.88651 5.88023
      vertex 163.867 11.1 3.54552
      vertex 163.867 7.88651 5.88023
    endloop
  endfacet
  facet normal -0 0.587781 0.80902
    outer loop
      vertex 82.7333 11.1 3.54552
      vertex 162.267 7.88651 5.88023
      vertex 162.267 11.1 3.54552
    endloop
  endfacet
  facet normal 0 0.587781 0.80902
    outer loop
      vertex 162.267 7.88651 5.88023
      vertex 82.7333 11.1 3.54552
      vertex 82.7333 7.88651 5.88023
    endloop
  endfacet
  facet normal 0 0.743146 0.66913
    outer loop
      vertex 81.1333 7.88651 5.88023
      vertex 1.60001 5.22866 8.83208
      vertex 81.1333 5.22866 8.83208
    endloop
  endfacet
  facet normal 0 0.743146 0.66913
    outer loop
      vertex 1.60001 5.22866 8.83208
      vertex 81.1333 7.88651 5.88023
      vertex 1.60001 7.88651 5.88023
    endloop
  endfacet
  facet normal 0 0.743146 0.66913
    outer loop
      vertex 243.4 7.88651 5.88023
      vertex 163.867 5.22866 8.83208
      vertex 243.4 5.22866 8.83208
    endloop
  endfacet
  facet normal 0 0.743146 0.66913
    outer loop
      vertex 163.867 5.22866 8.83208
      vertex 243.4 7.88651 5.88023
      vertex 163.867 7.88651 5.88023
    endloop
  endfacet
  facet normal 0 0.743146 0.66913
    outer loop
      vertex 162.267 7.88651 5.88023
      vertex 82.7333 5.22866 8.83208
      vertex 162.267 5.22866 8.83208
    endloop
  endfacet
  facet normal 0 0.743146 0.66913
    outer loop
      vertex 82.7333 5.22866 8.83208
      vertex 162.267 7.88651 5.88023
      vertex 82.7333 7.88651 5.88023
    endloop
  endfacet
  facet normal 0 0.866025 0.5
    outer loop
      vertex 81.1333 5.22866 8.83208
      vertex 1.60001 3.24262 12.272
      vertex 81.1333 3.24262 12.272
    endloop
  endfacet
  facet normal 0 0.866025 0.5
    outer loop
      vertex 1.60001 3.24262 12.272
      vertex 81.1333 5.22866 8.83208
      vertex 1.60001 5.22866 8.83208
    endloop
  endfacet
  facet normal 0 0.866025 0.5
    outer loop
      vertex 243.4 5.22866 8.83208
      vertex 163.867 3.24262 12.272
      vertex 243.4 3.24262 12.272
    endloop
  endfacet
  facet normal 0 0.866025 0.5
    outer loop
      vertex 163.867 3.24262 12.272
      vertex 243.4 5.22866 8.83208
      vertex 163.867 5.22866 8.83208
    endloop
  endfacet
  facet normal 0 0.866025 0.5
    outer loop
      vertex 162.267 5.22866 8.83208
      vertex 82.7333 3.24262 12.272
      vertex 162.267 3.24262 12.272
    endloop
  endfacet
  facet normal 0 0.866025 0.5
    outer loop
      vertex 82.7333 3.24262 12.272
      vertex 162.267 5.22866 8.83208
      vertex 82.7333 5.22866 8.83208
    endloop
  endfacet
  facet normal 0 0.951058 0.309013
    outer loop
      vertex 81.1333 3.24262 12.272
      vertex 1.60001 2.01519 16.0497
      vertex 81.1333 2.01519 16.0497
    endloop
  endfacet
  facet normal 0 0.951058 0.309013
    outer loop
      vertex 1.60001 2.01519 16.0497
      vertex 81.1333 3.24262 12.272
      vertex 1.60001 3.24262 12.272
    endloop
  endfacet
  facet normal 0 0.951058 0.309013
    outer loop
      vertex 243.4 3.24262 12.272
      vertex 163.867 2.01519 16.0497
      vertex 243.4 2.01519 16.0497
    endloop
  endfacet
  facet normal 0 0.951058 0.309013
    outer loop
      vertex 163.867 2.01519 16.0497
      vertex 243.4 3.24262 12.272
      vertex 163.867 3.24262 12.272
    endloop
  endfacet
  facet normal 0 0.951058 0.309013
    outer loop
      vertex 162.267 3.24262 12.272
      vertex 82.7333 2.01519 16.0497
      vertex 162.267 2.01519 16.0497
    endloop
  endfacet
  facet normal 0 0.951058 0.309013
    outer loop
      vertex 82.7333 2.01519 16.0497
      vertex 162.267 3.24262 12.272
      vertex 82.7333 3.24262 12.272
    endloop
  endfacet
  facet normal 0 0.994522 0.104528
    outer loop
      vertex 81.1333 2.01519 16.0497
      vertex 1.60001 1.60001 19.9999
      vertex 81.1333 1.60001 19.9999
    endloop
  endfacet
  facet normal 0 0.994522 0.104528
    outer loop
      vertex 1.60001 1.60001 19.9999
      vertex 81.1333 2.01519 16.0497
      vertex 1.60001 2.01519 16.0497
    endloop
  endfacet
  facet normal 0 0.994522 0.104528
    outer loop
      vertex 243.4 2.01519 16.0497
      vertex 163.867 1.60001 19.9999
      vertex 243.4 1.60001 19.9999
    endloop
  endfacet
  facet normal 0 0.994522 0.104528
    outer loop
      vertex 163.867 1.60001 19.9999
      vertex 243.4 2.01519 16.0497
      vertex 163.867 2.01519 16.0497
    endloop
  endfacet
  facet normal 0 0.994522 0.104528
    outer loop
      vertex 162.267 2.01519 16.0497
      vertex 82.7333 1.60001 19.9999
      vertex 162.267 1.60001 19.9999
    endloop
  endfacet
  facet normal 0 0.994522 0.104528
    outer loop
      vertex 82.7333 1.60001 19.9999
      vertex 162.267 2.01519 16.0497
      vertex 82.7333 2.01519 16.0497
    endloop
  endfacet
  facet normal 0 1 -0
    outer loop
      vertex 81.1333 20.6 1
      vertex 1.60001 20.6 1.10408
      vertex 81.1333 20.6 1.10408
    endloop
  endfacet
  facet normal 0 1 0
    outer loop
      vertex 1.60001 20.6 1.10408
      vertex 81.1333 20.6 1
      vertex 1.60001 20.6 1
    endloop
  endfacet
  facet normal 0 1 -0
    outer loop
      vertex 243.4 20.6 1
      vertex 163.867 20.6 1.10408
      vertex 243.4 20.6 1.10408
    endloop
  endfacet
  facet normal 0 1 0
    outer loop
      vertex 163.867 20.6 1.10408
      vertex 243.4 20.6 1
      vertex 163.867 20.6 1
    endloop
  endfacet
  facet normal 0 1 -0
    outer loop
      vertex 162.267 20.6 1
      vertex 82.7333 20.6 1.10408
      vertex 162.267 20.6 1.10408
    endloop
  endfacet
  facet normal 0 1 0
    outer loop
      vertex 82.7333 20.6 1.10408
      vertex 162.267 20.6 1
      vertex 82.7333 20.6 1
    endloop
  endfacet
endsolid OpenSCAD_Model
